<?xml version="1.0" encoding="utf-8"?>
<!-- Generator: Adobe Illustrator 22.1.0, SVG Export Plug-In . SVG Version: 6.00 Build 0)  -->
<svg version="1.1" id="Capa_1" xmlns="http://www.w3.org/2000/svg" xmlns:xlink="http://www.w3.org/1999/xlink" x="0px" y="0px"
	 viewBox="0 0 104 58" style="enable-background:new 0 0 104 58;" xml:space="preserve">
<style type="text/css">
	.st0{fill:#FFFFFF;}
</style>
<path id="path4155_3_" class="st0" d="M103.9,29.3c0,0.1,0,0.5-0.1,1.2H91.9c0.2,1,0.7,1.7,1.5,2.3c0.8,0.6,1.8,0.8,3,0.8
	c0.8,0,1.5-0.1,2.2-0.4c0.6-0.3,1.2-0.6,1.8-1.2l2.4,2.6c-1.5,1.7-3.6,2.5-6.5,2.5c-1.8,0-3.3-0.3-4.7-1c-1.4-0.7-2.4-1.7-3.2-2.9
	c-0.7-1.2-1.1-2.6-1.1-4.2c0-1.5,0.4-2.9,1.1-4.1s1.7-2.2,3-2.9c1.3-0.7,2.7-1.1,4.3-1.1c1.5,0,2.9,0.3,4.2,1
	c1.2,0.7,2.2,1.6,2.9,2.9C103.5,26.2,103.9,27.7,103.9,29.3z M95.7,24.6c-1,0-1.9,0.3-2.6,0.9c-0.7,0.6-1.1,1.4-1.3,2.4h7.7
	c-0.2-1-0.6-1.8-1.3-2.4C97.6,24.9,96.7,24.6,95.7,24.6L95.7,24.6z M77.7,21.1c1.5,0,2.8,0.3,4,1c1.2,0.7,2.2,1.6,2.8,2.8
	c0.7,1.2,1,2.6,1,4.2s-0.3,3-1,4.3c-0.7,1.2-1.6,2.2-2.8,2.8c-1.2,0.7-2.5,1-4,1c-2,0-3.6-0.6-4.7-1.9v7.3h-4.6V21.4h4.4v1.8
	C73.8,21.8,75.5,21.1,77.7,21.1L77.7,21.1z M76.9,33.6c1.2,0,2.1-0.4,2.9-1.2c0.8-0.8,1.1-1.9,1.1-3.2c0-1.3-0.4-2.4-1.1-3.2
	c-0.8-0.7-1.8-1.1-2.9-1.1c-1.2,0-2.1,0.4-2.9,1.2c-0.7,0.8-1.1,1.8-1.1,3.2c0,1.3,0.4,2.4,1.1,3.2C74.7,33.2,75.7,33.6,76.9,33.6z
	 M62.5,37.3c-0.8,0-1.5-0.3-2-0.8s-0.8-1.2-0.8-2s0.3-1.5,0.8-2s1.2-0.8,2-0.8s1.5,0.3,2,0.8s0.8,1.2,0.8,2s-0.3,1.5-0.8,2
	S63.3,37.3,62.5,37.3z M50.2,21.1c1.5,0,2.8,0.3,4,1c1.2,0.7,2.2,1.6,2.8,2.8c0.7,1.2,1,2.6,1,4.2s-0.3,3-1,4.3
	c-0.7,1.2-1.6,2.2-2.8,2.8c-1.2,0.7-2.5,1-4,1c-2.2,0-3.8-0.7-4.9-2V37h-4.4V15.4h4.6V23C46.6,21.8,48.2,21.1,50.2,21.1z M49.4,33.6
	c1.2,0,2.1-0.4,2.9-1.2c0.8-0.8,1.1-1.9,1.1-3.2c0-1.3-0.4-2.4-1.1-3.2c-0.7-0.8-1.7-1.2-2.9-1.2s-2.1,0.4-2.9,1.2
	c-0.7,0.8-1.1,1.8-1.1,3.2c0,1.3,0.4,2.4,1.1,3.2C47.2,33.2,48.2,33.6,49.4,33.6z M29.3,37.3c-1.7,0-3.1-0.3-4.5-1
	c-1.3-0.7-2.3-1.7-3.1-2.9c-0.7-1.2-1.1-2.6-1.1-4.2c0-1.6,0.4-2.9,1.1-4.2c0.7-1.2,1.8-2.2,3.1-2.9c1.3-0.7,2.8-1.1,4.5-1.1
	s3.1,0.4,4.4,1.1c1.3,0.7,2.3,1.6,3.1,2.9c0.7,1.2,1.1,2.6,1.1,4.2c0,1.6-0.4,2.9-1.1,4.2c-0.7,1.2-1.8,2.2-3.1,2.9
	C32.4,37,30.9,37.3,29.3,37.3z M29.3,33.6c1.2,0,2.1-0.4,2.9-1.2c0.8-0.8,1.1-1.9,1.1-3.2c0-1.3-0.4-2.4-1.1-3.2
	c-0.7-0.8-1.7-1.2-2.9-1.2c-1.2,0-2.1,0.4-2.9,1.2c-0.8,0.8-1.1,1.8-1.1,3.2c0,1.3,0.4,2.4,1.1,3.2C27.1,33.2,28.1,33.6,29.3,33.6z
	 M17.6,21.4v13.1c0,2.9-0.7,5-2.2,6.4c-1.5,1.4-3.7,2.1-6.6,2.1c-1.5,0-3-0.2-4.3-0.6C3.1,42,2,41.5,1.1,40.8l1.8-3.3
	c0.7,0.5,1.5,1,2.5,1.3s2,0.5,3,0.5c1.6,0,2.7-0.4,3.5-1.1S13,36.4,13,35v-0.7c-1.2,1.3-2.8,2-5,2c-1.4,0-2.8-0.3-4-0.9
	c-1.2-0.6-2.1-1.5-2.8-2.7c-0.7-1.1-1.1-2.5-1.1-4s0.4-2.8,1.1-4c0.7-1.2,1.6-2,2.8-2.7c1.2-0.6,2.5-1,4-1c2.3,0,4,0.7,5.2,2.2v-2
	L17.6,21.4L17.6,21.4z M9,32.6c1.2,0,2.2-0.4,2.9-1.1c0.8-0.7,1.2-1.7,1.2-2.8s-0.4-2.1-1.2-2.8c-0.8-0.7-1.7-1.1-2.9-1.1
	s-2.2,0.4-3,1.1s-1.2,1.6-1.2,2.8c0,1.2,0.4,2.1,1.2,2.8S7.7,32.6,9,32.6z"/>
</svg>
