<?xml version="1.0" encoding="utf-8"?>
<!-- Generator: Adobe Illustrator 22.1.0, SVG Export Plug-In . SVG Version: 6.00 Build 0)  -->
<svg version="1.1" id="Capa_1" xmlns="http://www.w3.org/2000/svg" xmlns:xlink="http://www.w3.org/1999/xlink" x="0px" y="0px"
	 viewBox="0 0 148 56" style="enable-background:new 0 0 148 56;" xml:space="preserve">
<style type="text/css">
	.st0{fill-rule:evenodd;clip-rule:evenodd;fill:#FFFFFF;}
	.st1{fill:#FFFFFF;}
</style>
<g>
	<g>
		<path class="st0" d="M135.8,5.2c0-2.8-2.3-5.1-5.1-5.1c-2.8,0-5.1,2.3-5.1,5.1c0,1.8,0.1,2.7,0.1,5l10.1,0
			C135.8,8.3,135.8,7.7,135.8,5.2 M141.1,5.1c0-2.8-2.3-5.1-5.1-5.1s-5.1,2.3-5.1,5.1c0,2.8,2.3,5.1,5.1,5.1S141.1,7.9,141.1,5.1z"
			/>
		<path class="st0" d="M108.7,5.2c0-2.8,2.3-5.1,5.1-5.1c2.8,0,5.1,2.3,5.1,5.1c0,2.8-2.3,5.1-5.1,5.1C111,10.3,108.7,8,108.7,5.2"
			/>
		<g>
			<path class="st0" d="M117.3,27.2c1-1.1,2.1-2.1,3.2-2.9v-10c0-0.1,0-0.2,0-0.4c0-1.2-1-2.2-2.2-2.2l-0.1,0l-10,0
				c-1.1,0-2,0.9-2.2,2c0,0.1,0,0.2,0,0.3c0,0.1,0,0.2,0,0.2v13.2h2.2v14.7l4.8,0C110,37.5,112.9,32.1,117.3,27.2z"/>
			<path class="st0" d="M141.1,11.8l-16.1,0c-0.1,0-0.1,0-0.2,0c-1.2,0-2.2,1-2.2,2.2c0,0.1,0,0.1,0,0.2v8.9c4.3-2.2,9-2.1,12,0.6
				c4.3,3.9,3.6,11.9-1.7,17.7c-0.2,0.3-0.5,0.5-0.7,0.8l8.9,0l0-14.7h2.2l0-13.5C143.3,12.9,142.3,11.9,141.1,11.8z"/>
		</g>
		<g>
			<path class="st0" d="M128,37.3L128,37.3l0.1,0.3l0.1,0.3l0.1,0.3l0.1,0.3l0.1,0.2l0.1,0.2l0.1,0.2l0.1,0.2l0.1,0.2l0.1,0.2
				l0.1,0.2l0.1,0.2l0.1,0.2l0.1,0.2l0.1,0.2l0.1,0.2l0.1,0.2l0.1,0.2l0.1,0.2l0.1,0.2l0.1,0.2l0.1,0.2l0.1,0.2l0,0.2l0,0.2l0,0.2
				l0,0.2l0,0.2l0,0.2l0,0.2l0,0.1c0.3-0.2,0.6-0.5,0.9-0.7l0-0.2l0-0.3l0-0.3l0-0.2l-0.1-0.2l-0.1-0.2l-0.1-0.2l-0.1-0.2l-0.1-0.2
				l-0.1-0.2l-0.1-0.2l-0.1-0.2l-0.1-0.2l-0.1-0.2l-0.1-0.2l-0.1-0.2l-0.1-0.2l-0.1-0.2l-0.1-0.2l-0.1-0.2l-0.1-0.2l-0.1-0.2
				l-0.1-0.2l-0.1-0.2l-0.1-0.2l-0.1-0.2l-0.1-0.2l-0.1-0.2v0L128,37.3z"/>
			<polygon class="st0" points="127.1,32.7 127.1,32.7 127.1,32.9 127.1,33 127,33.2 127,33.4 127,33.5 127,33.7 127.1,33.9 
				127.1,34 127.1,34.2 127.1,34.3 127.1,34.5 127.2,34.6 127.2,34.8 127.2,34.9 127.3,35.1 127.3,35.2 127.3,35.3 127.4,35.5 
				127.4,35.6 127.5,35.8 127.5,35.9 127.5,36 127.6,36.2 127.6,36.3 127.7,36.4 127.7,36.6 127.8,36.7 127.8,36.8 127.9,36.9 
				127.9,37.1 127.9,37.2 128,37.3 128.8,37.1 128.8,36.9 128.7,36.8 128.7,36.7 128.7,36.5 128.6,36.4 128.6,36.3 128.5,36.1 
				128.5,36 128.4,35.9 128.4,35.7 128.3,35.6 128.3,35.5 128.3,35.4 128.2,35.2 128.2,35.1 128.1,35 128.1,34.9 128.1,34.7 
				128,34.6 128,34.5 128,34.3 128,34.2 127.9,34.1 127.9,33.9 127.9,33.8 127.9,33.7 127.9,33.5 127.9,33.4 127.9,33.3 127.9,33.1 
				127.9,33 128,32.8 			"/>
			<polygon class="st0" points="128.4,29.9 128.4,29.9 128.5,30 128.5,30 128.5,30.1 128.5,30.1 128.5,30.2 128.5,30.2 128.5,30.3 
				128.5,30.3 128.5,30.4 128.5,30.4 128.4,30.5 128.4,30.6 128.3,30.6 128.3,30.7 128.2,30.8 128.2,30.9 128.1,30.9 128,31 
				127.9,31.1 127.9,31.2 127.8,31.3 127.7,31.4 127.6,31.5 127.6,31.6 127.5,31.7 127.4,31.9 127.3,32 127.3,32.1 127.2,32.3 
				127.2,32.4 127.1,32.5 127.1,32.7 128,32.8 128,32.7 128,32.6 128,32.6 128.1,32.5 128.1,32.4 128.2,32.3 128.2,32.2 128.3,32.1 
				128.3,32 128.4,32 128.5,31.9 128.5,31.8 128.6,31.7 128.7,31.6 128.8,31.5 128.8,31.4 128.9,31.3 129,31.2 129.1,31.1 129.1,31 
				129.2,30.9 129.3,30.8 129.3,30.7 129.3,30.6 129.4,30.4 129.4,30.3 129.4,30.1 129.4,30 129.4,29.9 129.3,29.7 129.3,29.6 
				129.2,29.4 			"/>
			<polygon class="st0" points="125.2,31.4 125.2,31.4 125.4,31.3 125.5,31.2 125.6,31.1 125.8,31 125.9,30.9 126.1,30.8 
				126.2,30.7 126.3,30.6 126.5,30.5 126.6,30.4 126.7,30.3 126.8,30.2 127,30.1 127.1,30.1 127.2,30 127.3,29.9 127.4,29.9 
				127.6,29.8 127.7,29.7 127.8,29.7 127.8,29.7 127.9,29.7 128,29.6 128.1,29.6 128.1,29.6 128.2,29.7 128.2,29.7 128.2,29.7 
				128.3,29.7 128.3,29.8 128.4,29.8 128.4,29.9 129.2,29.4 129.1,29.3 129,29.1 128.8,29 128.7,28.9 128.5,28.9 128.4,28.8 
				128.2,28.8 128.1,28.8 127.9,28.8 127.7,28.8 127.6,28.8 127.4,28.9 127.3,28.9 127.2,29 127,29.1 126.9,29.2 126.7,29.2 
				126.6,29.3 126.5,29.4 126.3,29.5 126.2,29.6 126.1,29.7 125.9,29.8 125.8,29.9 125.7,30 125.5,30.1 125.4,30.2 125.3,30.3 
				125.2,30.4 125,30.5 124.9,30.5 124.8,30.6 124.9,30.6 			"/>
			<path class="st0" d="M115.2,29.8l0.2,0.2l0.3,0.2l0.3,0.2l0.3,0.2l0.3,0.2l0.3,0.2l0.3,0.2l0.3,0.1l0.3,0.1l0.3,0.1l0.3,0.1
				l0.3,0.1l0.3,0.1l0.3,0.1l0.3,0.1l0.3,0.1l0.3,0l0.3,0l0.3,0l0.3,0l0.3,0l0.3,0l0.3,0l0.3,0l0.3,0l0.4-0.1l0.4-0.1l0.4-0.1
				l0.4-0.1l0.4-0.1l0.4-0.1l-0.3-0.8l-0.4,0.1l-0.3,0.1l-0.3,0.1l-0.3,0.1l-0.3,0.1l-0.3,0l-0.3,0l-0.3,0l-0.3,0l-0.3,0l-0.3,0
				l-0.3,0l-0.3,0l-0.3,0l-0.3,0l-0.3-0.1l-0.3-0.1l-0.3-0.1l-0.3-0.1l-0.3-0.1l-0.3-0.1l-0.3-0.1l-0.3-0.1l-0.3-0.1l-0.3-0.1
				l-0.3-0.1l-0.3-0.2l-0.3-0.2l-0.3-0.2l-0.3-0.2l-0.2-0.1C115.5,29.3,115.3,29.5,115.2,29.8"/>
			<path class="st0" d="M115.9,31.1L115.9,31.1L115.9,31.1L115.9,31.1l-0.1-0.1l0,0l0,0l0,0l-0.1,0l-0.1,0l-0.1,0l-0.1,0l-0.1,0
				l-0.1,0l-0.1,0l-0.1,0l-0.1,0l-0.1,0l-0.1,0l-0.1,0l-0.1,0l-0.1,0l-0.1,0l0,0c-0.2,0.2-0.3,0.5-0.5,0.7l0.1,0l0.1,0l0.1,0l0.1,0
				l0.1,0l0.1,0l0.1,0l0.1,0l0.1,0l0.1,0l0.1,0l0.1,0l0.1,0l0,0l0.1,0l0,0l0,0l0,0l0,0l0,0l0,0l0,0L115.9,31.1z"/>
			<polygon class="st0" points="122.1,32.7 122.1,32.7 121.8,32.7 121.6,32.8 121.3,32.8 121,32.9 120.8,32.9 120.6,32.9 
				120.3,32.9 120.1,32.9 119.9,32.9 119.7,32.9 119.5,32.9 119.4,32.9 119.2,32.9 119,32.9 118.8,32.9 118.7,32.9 118.5,32.8 
				118.4,32.8 118.2,32.7 118.1,32.7 117.9,32.6 117.7,32.5 117.6,32.4 117.4,32.3 117.2,32.2 117.1,32.1 116.9,32 116.7,31.8 
				116.5,31.7 116.3,31.5 116.1,31.3 115.9,31.1 115.3,31.8 115.5,32 115.7,32.2 116,32.3 116.2,32.5 116.4,32.7 116.6,32.8 
				116.8,32.9 117,33.1 117.1,33.2 117.3,33.3 117.5,33.4 117.7,33.5 117.9,33.5 118.1,33.6 118.3,33.7 118.5,33.7 118.7,33.7 
				118.9,33.8 119.1,33.8 119.3,33.8 119.5,33.8 119.7,33.8 119.9,33.8 120.2,33.8 120.4,33.8 120.6,33.8 120.9,33.7 121.1,33.7 
				121.4,33.7 121.7,33.7 122,33.6 122.3,33.6 122.3,33.6 			"/>
			<polygon class="st0" points="125.5,33.3 125.5,33.3 125.5,33.2 125.4,33.1 125.3,33 125.2,32.9 125.1,32.8 125,32.8 124.9,32.7 
				124.8,32.7 124.7,32.6 124.6,32.6 124.5,32.6 124.4,32.5 124.3,32.5 124.2,32.5 124.1,32.5 124,32.5 123.9,32.5 123.8,32.5 
				123.6,32.5 123.5,32.5 123.4,32.5 123.3,32.5 123.2,32.5 123.1,32.6 123,32.6 122.9,32.6 122.7,32.6 122.6,32.6 122.5,32.7 
				122.4,32.7 122.3,32.7 122.1,32.7 122.3,33.6 122.4,33.6 122.5,33.5 122.6,33.5 122.8,33.5 122.9,33.5 123,33.5 123.1,33.4 
				123.2,33.4 123.3,33.4 123.4,33.4 123.5,33.4 123.6,33.4 123.7,33.4 123.8,33.4 123.9,33.4 123.9,33.4 124,33.4 124.1,33.4 
				124.2,33.4 124.2,33.4 124.3,33.4 124.4,33.4 124.4,33.5 124.5,33.5 124.5,33.5 124.6,33.5 124.6,33.6 124.7,33.6 124.7,33.6 
				124.8,33.7 124.8,33.7 124.8,33.8 			"/>
			<polygon class="st0" points="127.5,39.3 127.5,39.3 127.4,39 127.3,38.8 127.3,38.6 127.2,38.4 127.1,38.2 127.1,38 127,37.8 
				127,37.6 126.9,37.4 126.9,37.2 126.9,37 126.8,36.8 126.8,36.7 126.8,36.5 126.7,36.3 126.7,36.1 126.7,36 126.7,35.8 
				126.6,35.6 126.6,35.4 126.5,35.3 126.5,35.1 126.4,34.9 126.4,34.7 126.3,34.6 126.2,34.4 126.1,34.2 126,34 125.9,33.8 
				125.8,33.6 125.7,33.5 125.5,33.3 124.8,33.8 125,34 125.1,34.1 125.2,34.3 125.3,34.4 125.3,34.6 125.4,34.7 125.5,34.9 
				125.5,35 125.6,35.2 125.6,35.3 125.7,35.5 125.7,35.7 125.8,35.8 125.8,36 125.8,36.1 125.9,36.3 125.9,36.5 125.9,36.6 
				125.9,36.8 126,37 126,37.2 126,37.4 126.1,37.6 126.1,37.8 126.2,38 126.2,38.2 126.3,38.4 126.4,38.6 126.4,38.9 126.5,39.1 
				126.6,39.3 126.7,39.6 126.7,39.6 			"/>
			<path class="st0" d="M129.3,45L129.3,45l0-0.3l0-0.2l0-0.2l0-0.2l0-0.2l0-0.2l0-0.2l0-0.2l-0.1-0.2l-0.1-0.2l-0.1-0.2l-0.1-0.2
				l-0.1-0.2l-0.1-0.2l-0.1-0.2l-0.1-0.2l-0.1-0.2l-0.1-0.2l-0.1-0.2l-0.1-0.2l-0.1-0.2l-0.1-0.2l-0.1-0.2l-0.1-0.2l-0.1-0.2
				l-0.1-0.2l-0.1-0.2l-0.1-0.2l-0.8,0.3l0.1,0.2l0.1,0.2l0.1,0.2l0.1,0.2l0.1,0.2l0.1,0.2l0.1,0.2l0.1,0.2l0.1,0.2l0.1,0.2l0.1,0.2
				l0.1,0.2l0.1,0.2l0.1,0.2l0.1,0.2l0.1,0.2l0.1,0.2l0.1,0.2l0.1,0.2l0,0.2l0,0.2l0,0.2l0,0.2l0,0.2l0,0.2v0.2l0,0.2l0,0.2l0,0.2
				l0,0.2l0,0.2l-0.1,0.2l0.1,0C128.7,45.4,129,45.2,129.3,45"/>
			<path class="st0" d="M116.2,33.7L116.2,33.7L116.2,33.7l-0.1-0.1l-0.1-0.1l-0.1-0.1l-0.1-0.1l-0.1-0.1l-0.1-0.1l-0.1-0.1
				l-0.1-0.1l-0.1-0.1l-0.1-0.1l-0.1-0.1l-0.1-0.1l-0.1-0.1l-0.1-0.1l-0.1-0.1l-0.1-0.1l-0.1-0.1l-0.1-0.1l-0.1-0.1l-0.1-0.1
				l-0.1-0.1l-0.1-0.1l-0.1-0.1l-0.1-0.1l-0.1-0.1c-0.2,0.3-0.3,0.5-0.4,0.8l0,0l0.1,0.1l0.1,0.1l0.1,0.1l0.1,0.1l0.1,0.1l0.1,0.1
				l0.1,0.1l0.1,0.1l0.1,0.1l0.1,0.1l0.1,0.1l0.1,0.1l0.1,0.1l0.1,0.1l0.1,0.1l0.1,0.1l0.1,0.1l0.1,0.1l0.1,0.1l0.1,0.1l0.1,0.1
				l0.1,0.1l0.1,0.1l0.1,0l0,0L116.2,33.7z"/>
			<polygon class="st0" points="123.9,35.2 123.9,35.2 123.7,35 123.4,34.8 123.1,34.7 122.9,34.5 122.6,34.4 122.3,34.4 
				122.1,34.3 121.8,34.3 121.5,34.2 121.3,34.2 121,34.2 120.7,34.2 120.5,34.3 120.2,34.3 120,34.3 119.7,34.4 119.5,34.4 
				119.3,34.4 119,34.5 118.8,34.5 118.6,34.5 118.3,34.5 118.1,34.5 117.9,34.5 117.7,34.4 117.5,34.4 117.3,34.3 117.1,34.3 
				116.9,34.2 116.7,34 116.5,33.9 116.2,33.7 115.7,34.4 115.9,34.6 116.2,34.8 116.5,34.9 116.7,35.1 117,35.2 117.3,35.2 
				117.5,35.3 117.8,35.3 118.1,35.4 118.3,35.4 118.6,35.4 118.9,35.3 119.1,35.3 119.4,35.3 119.6,35.3 119.9,35.2 120.1,35.2 
				120.3,35.2 120.6,35.1 120.8,35.1 121,35.1 121.3,35.1 121.5,35.1 121.7,35.1 121.9,35.2 122.1,35.2 122.3,35.3 122.5,35.3 
				122.7,35.4 122.9,35.6 123.1,35.7 123.4,35.9 			"/>
			<polygon class="st0" points="125.9,40.2 125.9,40.2 125.9,40 125.9,39.9 125.8,39.7 125.8,39.5 125.8,39.4 125.7,39.2 125.7,39 
				125.7,38.9 125.6,38.7 125.6,38.5 125.6,38.4 125.6,38.2 125.5,38.1 125.5,37.9 125.4,37.7 125.4,37.6 125.3,37.4 125.3,37.3 
				125.2,37.1 125.2,37 125.1,36.8 125,36.7 125,36.5 124.9,36.4 124.8,36.2 124.7,36.1 124.6,35.9 124.5,35.8 124.3,35.7 
				124.2,35.5 124.1,35.4 123.9,35.2 123.4,35.9 123.5,36 123.6,36.1 123.7,36.2 123.8,36.3 123.9,36.5 124,36.6 124,36.7 
				124.1,36.8 124.2,36.9 124.2,37.1 124.3,37.2 124.4,37.3 124.4,37.4 124.5,37.6 124.5,37.7 124.5,37.8 124.6,38 124.6,38.1 
				124.7,38.3 124.7,38.4 124.7,38.6 124.8,38.7 124.8,38.9 124.8,39 124.8,39.2 124.9,39.4 124.9,39.5 124.9,39.7 125,39.9 125,40 
				125,40.2 125.1,40.4 125.1,40.4 			"/>
			<polygon class="st0" points="126.7,42.6 126.7,42.6 126.7,42.5 126.6,42.4 126.6,42.3 126.5,42.2 126.5,42.2 126.5,42.1 
				126.5,42 126.4,41.9 126.4,41.9 126.4,41.8 126.3,41.7 126.3,41.7 126.3,41.6 126.3,41.5 126.3,41.5 126.2,41.4 126.2,41.4 
				126.2,41.3 126.2,41.2 126.2,41.2 126.1,41.1 126.1,41 126.1,41 126.1,40.9 126.1,40.8 126,40.8 126,40.7 126,40.6 126,40.5 
				126,40.4 126,40.3 125.9,40.2 125.1,40.4 125.1,40.5 125.1,40.6 125.1,40.7 125.2,40.8 125.2,40.9 125.2,40.9 125.2,41 
				125.2,41.1 125.3,41.2 125.3,41.3 125.3,41.3 125.3,41.4 125.3,41.5 125.4,41.6 125.4,41.6 125.4,41.7 125.4,41.8 125.5,41.8 
				125.5,41.9 125.5,42 125.5,42 125.6,42.1 125.6,42.2 125.6,42.3 125.6,42.3 125.7,42.4 125.7,42.5 125.7,42.6 125.8,42.7 
				125.8,42.8 125.9,42.8 125.9,42.9 			"/>
			<path class="st0" d="M127.3,46.3L127.3,46.3l0-0.2l0-0.1v-0.1l0-0.1l0-0.1l0-0.1l0-0.1l0-0.1l0-0.1l0-0.1l0-0.1l0-0.1l0-0.1
				l0-0.1l0-0.1l0-0.1l0-0.1l0-0.1l0-0.1l0-0.1l0-0.1l0-0.1l0-0.1l-0.1-0.1l-0.1-0.1l-0.1-0.1l-0.8,0.3l0.1,0.1l0,0.1l0,0.1l0,0.1
				l0,0.1l0,0.1l0,0.1l0,0.1l0,0.1l0,0.1l0,0.1l0,0.1l0,0.1l0,0.1l0,0.1l0,0.1l0,0.1l0,0.1l0,0.1l0,0.1l0,0.1v0.1l0,0.1v0.1l0,0.1
				v0.1l0,0.1l0,0.1l0,0.1l0,0.1C126.7,46.6,127,46.4,127.3,46.3"/>
			<path class="st0" d="M117.9,36.2L117.9,36.2l-0.2,0l-0.2,0l-0.2,0l-0.2,0l-0.2,0l-0.2,0l-0.2,0l-0.2-0.1l-0.2-0.1l-0.2-0.1
				l-0.2-0.1l-0.2-0.1l-0.2-0.1l-0.2-0.1l-0.2-0.1l-0.2-0.1l-0.2-0.1l-0.2-0.1l-0.2-0.1l-0.2-0.1l-0.2-0.1l-0.2-0.1l-0.2-0.1
				l-0.2-0.1l-0.3-0.2l-0.3-0.2l-0.2-0.1l-0.2-0.1l-0.1,0c-0.1,0.3-0.2,0.6-0.3,0.8l0.1,0.1l0.2,0.1L113,35l0.3,0.2l0.2,0.1l0.2,0.1
				l0.2,0.1l0.2,0.1l0.2,0.1l0.2,0.1l0.2,0.1l0.2,0.1l0.2,0.1l0.2,0.1l0.2,0.1l0.2,0.1l0.2,0.1l0.2,0.1l0.2,0.1l0.2,0.1l0.2,0.1
				l0.2,0.1l0.2,0l0.2,0l0.2,0l0.2,0l0.2,0l0.2,0V36.2z"/>
			<polygon class="st0" points="122.2,37 122.2,37 122,37 121.9,36.9 121.8,36.8 121.7,36.7 121.5,36.7 121.4,36.6 121.3,36.6 
				121.1,36.5 121,36.5 120.9,36.5 120.7,36.4 120.6,36.4 120.5,36.4 120.3,36.3 120.2,36.3 120.1,36.3 119.9,36.3 119.8,36.3 
				119.7,36.2 119.5,36.2 119.4,36.2 119.3,36.2 119.1,36.2 119,36.2 118.8,36.2 118.7,36.2 118.6,36.2 118.4,36.2 118.3,36.2 
				118.2,36.2 118.1,36.2 117.9,36.2 117.9,37.1 118.1,37.1 118.2,37.1 118.3,37.1 118.4,37.1 118.6,37.1 118.7,37.1 118.8,37.1 
				119,37.1 119.1,37.1 119.2,37.1 119.3,37.1 119.5,37.1 119.6,37.1 119.7,37.1 119.8,37.1 120,37.2 120.1,37.2 120.2,37.2 
				120.3,37.2 120.4,37.2 120.5,37.3 120.7,37.3 120.8,37.3 120.9,37.4 121,37.4 121.1,37.4 121.2,37.5 121.3,37.5 121.4,37.6 
				121.5,37.6 121.6,37.7 121.7,37.7 			"/>
			<polygon class="st0" points="124.7,41.7 124.7,41.7 124.6,41.5 124.5,41.3 124.5,41.1 124.4,40.9 124.4,40.7 124.3,40.5 
				124.3,40.3 124.2,40.1 124.2,40 124.1,39.8 124.1,39.6 124,39.5 123.9,39.3 123.9,39.2 123.8,39 123.8,38.9 123.7,38.8 
				123.6,38.6 123.6,38.5 123.5,38.4 123.4,38.2 123.3,38.1 123.2,38 123.1,37.9 123,37.8 122.9,37.7 122.8,37.5 122.7,37.4 
				122.6,37.3 122.4,37.2 122.3,37.1 122.2,37 121.7,37.7 121.8,37.8 121.9,37.9 122,38 122.1,38.1 122.2,38.2 122.3,38.3 
				122.4,38.4 122.5,38.4 122.5,38.5 122.6,38.6 122.7,38.7 122.7,38.8 122.8,38.9 122.9,39 122.9,39.2 123,39.3 123,39.4 
				123.1,39.5 123.1,39.6 123.2,39.8 123.2,39.9 123.3,40.1 123.3,40.2 123.4,40.4 123.4,40.6 123.5,40.7 123.5,40.9 123.6,41.1 
				123.6,41.3 123.7,41.5 123.8,41.7 123.8,41.9 			"/>
			<path class="st0" d="M125.3,47.2L125.3,47.2l0-0.2l0-0.2l0-0.2l0-0.2l0-0.2l0-0.2l0-0.2l0-0.2l0-0.2l0-0.2l0-0.2l0-0.2l0-0.2
				l0-0.2l0-0.2l0-0.2l0-0.2l0-0.2l0-0.2l-0.1-0.2l0-0.2l-0.1-0.2l-0.1-0.2l0-0.2l-0.1-0.2l-0.1-0.2l-0.1-0.2l-0.8,0.2l0.1,0.2
				l0.1,0.2l0,0.2l0.1,0.2l0,0.2l0,0.2l0,0.2l0,0.2l0,0.2l0,0.2l0,0.2l0,0.2l0,0.2l0,0.2l0,0.2l0,0.2l0,0.2l0,0.2l0,0.2l0,0.2l0,0.2
				l0,0.2l0,0.2l0,0.2l0,0.2l0,0.2l0,0.2l0,0.2l0,0.2l0,0.1C124.7,47.4,125,47.3,125.3,47.2"/>
			<path class="st0" d="M120.7,39.5L120.7,39.5l-0.2-0.2l-0.2-0.2L120,39l-0.3-0.2l-0.3-0.2l-0.3-0.2l-0.3-0.2l-0.3-0.2l-0.3-0.1
				l-0.3-0.1l-0.3-0.1l-0.4-0.1l-0.4-0.1l-0.4-0.1l-0.4-0.1l-0.4-0.1l-0.4-0.1l-0.4-0.1l-0.4-0.1l-0.4-0.1l-0.4-0.1l-0.3-0.1
				l-0.3-0.1l-0.3-0.1l-0.3-0.1l-0.3-0.1l-0.1-0.1c-0.1,0.3-0.1,0.6-0.2,0.9l0.3,0.1l0.3,0.1l0.3,0.1l0.3,0.1l0.4,0.1l0.4,0.1
				l0.4,0.1l0.4,0.1l0.4,0.1l0.4,0.1l0.4,0.1l0.4,0.1l0.4,0.1l0.4,0.1l0.3,0.1l0.3,0.1l0.3,0.1l0.3,0.1l0.3,0.1l0.3,0.1l0.3,0.1
				l0.3,0.2l0.2,0.2l0.2,0.2l0.2,0.2l0.2,0.2L120.7,39.5z"/>
			<path class="st0" d="M123.6,47.6L123.6,47.6l0.1-0.4l0-0.3l0-0.3l0-0.3l0-0.3l0-0.3l0-0.3l0-0.3l0-0.3l0-0.3l-0.1-0.3l-0.1-0.3
				l-0.1-0.3l-0.1-0.3l-0.1-0.3l-0.1-0.3l-0.1-0.3l-0.1-0.3l-0.2-0.3l-0.2-0.3l-0.2-0.3l-0.2-0.3l-0.2-0.3l-0.2-0.2l-0.2-0.2
				l-0.2-0.2l-0.2-0.2l-0.3-0.2l-0.3-0.2l-0.6,0.6l0.3,0.2l0.2,0.2l0.2,0.2l0.2,0.2l0.2,0.2l0.2,0.2l0.2,0.2l0.2,0.2l0.2,0.2
				l0.1,0.2l0.1,0.2l0.1,0.2l0.1,0.2l0.1,0.2l0.1,0.2l0.1,0.2l0.1,0.2l0.1,0.2l0,0.3l0,0.3l0,0.3l0,0.3l0,0.3l0,0.3l0,0.3l0,0.3
				l0,0.3l0,0.3l-0.1,0.3l-0.1,0.3C123,47.7,123.3,47.7,123.6,47.6"/>
			<path class="st0" d="M119.2,41.7L119.2,41.7l-0.2-0.2l-0.2-0.2l-0.2-0.2l-0.2-0.2l-0.2-0.2l-0.3-0.2l-0.3-0.2l-0.3-0.2l-0.3-0.1
				l-0.3-0.1l-0.3-0.1l-0.3-0.1l-0.3-0.1l-0.3-0.1l-0.3-0.1l-0.3-0.1l-0.6-0.3l-0.6-0.3l-0.3-0.1l-0.3-0.1l-0.3-0.1l-0.3-0.1
				l-0.3-0.1l-0.3-0.1l-0.3-0.1l-0.2-0.1c0,0.3,0,0.7,0,1l0.1,0l0.3,0.1l0.3,0.1l0.3,0.1l0.3,0.1l0.3,0.1l0.3,0.1l0.6,0.3l0.6,0.3
				l0.3,0.1l0.3,0.1l0.3,0.1l0.3,0.1l0.3,0.1l0.3,0.1l0.3,0.1l0.3,0.1l0.2,0.1l0.2,0.2l0.2,0.2l0.2,0.2l0.2,0.2l0.2,0.2l0.2,0.2
				l0.2,0.2L119.2,41.7z"/>
			<path class="st0" d="M122.4,47.7l0-0.2l0-0.2l0-0.2l0-0.2l0-0.2l0-0.2l-0.1-0.2l-0.1-0.2l-0.1-0.2l-0.1-0.2l-0.1-0.2l-0.1-0.2
				l-0.1-0.2l-0.1-0.2l-0.1-0.2l-0.1-0.2l-0.1-0.2l-0.1-0.2l-0.1-0.2l-0.1-0.2l-0.1-0.2l-0.1-0.2l-0.1-0.2l-0.1-0.2l-0.1-0.2
				l-0.1-0.2l-0.2-0.2l-0.2-0.2l-0.2-0.2l-0.2-0.2l-0.2-0.2l-0.2-0.2l-0.6,0.6l0.2,0.1l0.2,0.1l0.2,0.1l0.2,0.1l0.1,0.1l0.1,0.1
				l0.1,0.2l0.1,0.1l0.1,0.2l0.1,0.2l0.1,0.2l0.1,0.2l0.1,0.2l0.1,0.2l0.1,0.2l0.1,0.2l0.1,0.2l0.1,0.2l0.1,0.2l0.1,0.2l0.1,0.2
				l0.1,0.2l0.1,0.2l0.1,0.2l0.1,0.2l0,0.2l0,0.2l0,0.2l0,0.2l0,0.2l0,0.2l0,0.2c0.1,0,0.2,0,0.2,0L122.4,47.7z"/>
			<path class="st0" d="M117.6,43.4L117.6,43.4l-0.2-0.2l-0.2-0.2l-0.2-0.2l-0.2-0.2l-0.2-0.2l-0.2-0.2l-0.2-0.1l-0.2-0.1l-0.2-0.1
				l-0.2-0.1l-0.2-0.1l-0.2-0.1l-0.2-0.1l-0.2-0.1l-0.2-0.1l-0.2-0.1l-0.2-0.1l-0.2-0.1l-0.2-0.1l-0.2-0.1l-0.2-0.1l-0.2-0.1
				l-0.2-0.1l-0.2-0.1l-0.2-0.1l0,0c0.1,0.4,0.2,0.7,0.4,1.1l0.2,0.1l0.2,0.1l0.2,0.1l0.2,0.1l0.2,0.1l0.2,0.1L114,42l0.2,0.1
				l0.2,0.1l0.2,0.1l0.2,0.1l0.2,0.1l0.2,0.1l0.2,0.1l0.2,0.1l0.2,0.1l0.2,0.1l0.2,0.1l0.2,0.2l0.2,0.2l0.2,0.2l0.2,0.2L117.6,43.4z
				"/>
			<polygon class="st0" points="119.4,45.3 119.4,45.3 119.4,45.3 119.3,45.3 119.3,45.3 119.3,45.2 119.2,45.2 119.2,45.1 
				119.1,45.1 119,45 119,44.9 118.9,44.9 118.9,44.8 118.8,44.7 118.7,44.6 118.6,44.6 118.6,44.5 118.5,44.4 118.4,44.3 
				118.4,44.2 118.3,44.2 118.2,44.1 118.1,44 118.1,43.9 118,43.9 118,43.8 117.9,43.7 117.8,43.7 117.8,43.6 117.7,43.6 
				117.7,43.5 117.6,43.5 117.6,43.5 117.6,43.4 117,44.1 117,44.1 117,44.1 117.1,44.1 117.1,44.2 117.2,44.2 117.2,44.3 
				117.3,44.3 117.3,44.4 117.4,44.5 117.4,44.5 117.5,44.6 117.6,44.7 117.6,44.8 117.7,44.8 117.8,44.9 117.9,45 117.9,45.1 
				118,45.2 118.1,45.2 118.1,45.3 118.2,45.4 118.3,45.5 118.3,45.5 118.4,45.6 118.5,45.7 118.5,45.7 118.6,45.8 118.6,45.8 
				118.7,45.9 118.7,45.9 118.8,45.9 118.8,46 			"/>
			<path class="st0" d="M121,47.6L121,47.6L121,47.6l-0.1-0.2l-0.1-0.1l-0.1-0.1l-0.1-0.1l-0.1-0.1l-0.1-0.1l-0.1-0.1l-0.1-0.1
				l-0.1-0.1l-0.1-0.1l-0.1-0.1l-0.1-0.1l-0.1-0.1l-0.1-0.1l-0.1-0.1l-0.1-0.1l-0.1-0.1l-0.1-0.1l-0.1-0.1l-0.1-0.1l-0.1-0.1
				l-0.1-0.1l-0.1-0.1l-0.1-0.1l-0.1-0.1l-0.1-0.1l-0.6,0.6l0,0l0,0l0,0l0,0.1l0,0.1l0.1,0.1l0,0.1l0.1,0.1l0.1,0.1l0.1,0.1l0.1,0.1
				l0.1,0.1l0.1,0.1l0.1,0.1l0.1,0.1l0.1,0.1l0.1,0.1l0.1,0.1l0,0C120.2,47.5,120.6,47.6,121,47.6"/>
			<path class="st0" d="M121.8,29.3L121.8,29.3l-0.2,0l-0.2,0l-0.2,0l-0.2,0l-0.2,0l-0.2,0l-0.2,0l-0.2,0l-0.2,0l-0.2,0l-0.2,0
				l-0.2,0l-0.2-0.1l-0.2-0.1l-0.2-0.1l-0.2-0.1l-0.2-0.1l-0.2-0.1l-0.2-0.1l-0.2-0.1l-0.2-0.1l-0.2-0.1l-0.2-0.1l-0.2-0.1l-0.2-0.1
				l-0.2-0.1l-0.2-0.1l-0.2-0.1l0,0c-0.2,0.2-0.4,0.5-0.6,0.7l0.1,0l0.2,0.1l0.2,0.1l0.2,0.1l0.2,0.1l0.2,0.1l0.2,0.1l0.2,0.1
				l0.2,0.1l0.2,0.1l0.2,0.1l0.2,0.1l0.2,0.1l0.2,0.1l0.2,0.1l0.2,0.1l0.2,0.1l0.2,0.1l0.2,0.1l0.2,0l0.2,0.1l0.2,0l0.2,0l0.2,0
				l0.2,0l0.2,0l0.2,0l0.2,0l0.2,0l0.2,0L121.8,29.3z"/>
			<polygon class="st0" points="129.8,27.1 129.8,27.1 129.6,26.9 129.3,26.7 129,26.6 128.8,26.5 128.5,26.5 128.2,26.5 
				127.9,26.5 127.7,26.5 127.4,26.6 127.1,26.7 126.9,26.8 126.6,26.9 126.4,27 126.1,27.2 125.9,27.3 125.7,27.5 125.4,27.6 
				125.2,27.8 124.9,27.9 124.7,28.1 124.5,28.3 124.2,28.4 124,28.6 123.7,28.7 123.5,28.8 123.3,28.9 123,29 122.8,29.1 
				122.6,29.2 122.3,29.2 122.1,29.3 121.8,29.3 121.8,30.1 122.1,30.1 122.5,30.1 122.8,30 123,30 123.3,29.9 123.6,29.7 
				123.9,29.6 124.2,29.5 124.4,29.3 124.7,29.2 124.9,29 125.2,28.8 125.4,28.7 125.7,28.5 125.9,28.3 126.1,28.2 126.4,28 
				126.6,27.9 126.8,27.8 127,27.7 127.2,27.6 127.4,27.5 127.6,27.4 127.8,27.4 128,27.3 128.2,27.3 128.4,27.3 128.6,27.4 
				128.7,27.4 128.9,27.5 129.1,27.6 129.3,27.7 			"/>
			<polygon class="st0" points="130.5,34.5 130.5,34.5 130.5,34.4 130.5,34.2 130.5,34 130.5,33.8 130.5,33.6 130.5,33.4 
				130.5,33.1 130.6,32.9 130.6,32.7 130.7,32.4 130.7,32.2 130.7,32 130.8,31.7 130.8,31.5 130.9,31.2 130.9,30.9 131,30.7 
				131,30.4 131,30.2 131,29.9 131,29.7 131,29.4 131,29.1 131,28.9 130.9,28.6 130.8,28.4 130.7,28.2 130.6,27.9 130.4,27.7 
				130.3,27.5 130.1,27.3 129.8,27.1 129.3,27.7 129.5,27.9 129.6,28 129.7,28.2 129.8,28.4 129.9,28.5 130,28.7 130,28.9 
				130.1,29.1 130.1,29.3 130.1,29.5 130.2,29.7 130.2,29.9 130.1,30.1 130.1,30.3 130.1,30.6 130.1,30.8 130,31.1 130,31.3 
				129.9,31.5 129.9,31.8 129.8,32 129.8,32.3 129.7,32.5 129.7,32.8 129.7,33 129.6,33.3 129.6,33.5 129.6,33.7 129.6,34 
				129.6,34.2 129.6,34.5 129.6,34.7 			"/>
			<path class="st0" d="M133,41.5l0-0.1l0-0.3l0-0.3l-0.1-0.3l-0.1-0.3l-0.1-0.3l-0.1-0.3l-0.1-0.3l-0.1-0.3l-0.1-0.3l-0.1-0.3
				l-0.1-0.3l-0.1-0.3l-0.1-0.3l-0.1-0.3l-0.1-0.3l-0.1-0.3l-0.1-0.3l-0.1-0.3l-0.1-0.3l-0.1-0.3l-0.1-0.3l-0.1-0.3l-0.1-0.3
				l-0.1-0.3l-0.1-0.3l-0.1-0.3l-0.9,0.2l0.1,0.3l0.1,0.3l0.1,0.3l0.1,0.3l0.1,0.3l0.1,0.3l0.1,0.3l0.1,0.3l0.1,0.3l0.1,0.3l0.1,0.3
				l0.1,0.3l0.1,0.3l0.1,0.3l0.1,0.3l0.1,0.3l0.1,0.3l0.1,0.2l0.1,0.2l0.1,0.2l0.1,0.2l0.1,0.2l0.1,0.2l0,0.2l0,0.2l0,0.2l0,0.2
				l0,0.2l0,0.2l0,0.2l0,0.1C132.3,42.2,132.6,41.9,133,41.5"/>
			<path class="st0" d="M125,25.6L125,25.6l-0.4,0.2l-0.3,0.2l-0.3,0.2l-0.3,0.1l-0.3,0.1l-0.3,0.1l-0.3,0.1l-0.3,0.1l-0.3,0.1
				l-0.2,0.1l-0.2,0.1l-0.2,0.1l-0.2,0l-0.2,0l-0.2,0l-0.2,0l-0.2,0l-0.2,0l-0.2,0l-0.2,0l-0.2,0l-0.2-0.1l-0.2-0.1l-0.2-0.1
				l-0.2-0.1l-0.2-0.1l-0.2-0.1l-0.2-0.1l-0.2-0.1l-0.1-0.1c-0.2,0.2-0.4,0.4-0.6,0.6l0.2,0.2l0.2,0.2l0.2,0.2l0.2,0.1l0.2,0.1
				l0.2,0.1l0.2,0.1l0.2,0.1l0.2,0.1l0.2,0l0.2,0l0.2,0l0.2,0l0.2,0l0.2,0l0.2,0l0.2,0l0.3-0.1l0.3-0.1l0.3-0.1l0.3-0.1l0.3-0.1
				l0.3-0.1l0.3-0.1l0.3-0.1L124,27l0.3-0.1l0.3-0.2l0.4-0.2l0.4-0.2L125,25.6z"/>
			<polygon class="st0" points="132.6,26.5 132.6,26.5 132.4,26.3 132.2,26.1 132,25.9 131.8,25.7 131.6,25.6 131.4,25.4 
				131.2,25.3 131,25.2 130.7,25 130.5,24.9 130.3,24.9 130,24.8 129.8,24.7 129.5,24.7 129.3,24.7 129.1,24.6 128.8,24.6 
				128.6,24.6 128.3,24.6 128.1,24.7 127.8,24.7 127.6,24.7 127.3,24.8 127,24.8 126.8,24.9 126.5,25 126.3,25.1 126,25.2 
				125.8,25.3 125.5,25.4 125.3,25.5 125,25.6 125.4,26.4 125.6,26.3 125.9,26.2 126.1,26.1 126.3,26 126.6,25.9 126.8,25.8 
				127,25.7 127.3,25.7 127.5,25.6 127.7,25.6 127.9,25.6 128.1,25.5 128.4,25.5 128.6,25.5 128.8,25.5 129,25.5 129.2,25.5 
				129.4,25.5 129.6,25.6 129.8,25.6 130,25.7 130.2,25.8 130.4,25.8 130.5,25.9 130.7,26 130.9,26.1 131.1,26.3 131.3,26.4 
				131.4,26.6 131.6,26.7 131.8,26.9 131.9,27.1 			"/>
			<polygon class="st0" points="133.6,35.1 133.6,35.1 133.6,34.8 133.5,34.5 133.5,34.2 133.4,33.9 133.4,33.6 133.4,33.3 
				133.4,33 133.4,32.7 133.4,32.4 133.4,32.1 133.4,31.8 133.4,31.5 133.4,31.3 133.4,31 133.4,30.7 133.4,30.4 133.4,30.1 
				133.4,29.8 133.4,29.6 133.4,29.3 133.4,29 133.3,28.8 133.3,28.5 133.3,28.3 133.2,28 133.2,27.8 133.1,27.6 133,27.4 133,27.1 
				132.9,26.9 132.7,26.7 132.6,26.5 131.9,27.1 132,27.2 132.1,27.3 132.2,27.5 132.2,27.7 132.3,27.8 132.3,28 132.4,28.2 
				132.4,28.4 132.4,28.6 132.5,28.9 132.5,29.1 132.5,29.3 132.5,29.6 132.5,29.9 132.5,30.1 132.5,30.4 132.5,30.7 132.5,31 
				132.5,31.2 132.5,31.5 132.5,31.8 132.5,32.1 132.5,32.4 132.5,32.7 132.5,33.1 132.5,33.4 132.5,33.7 132.6,34 132.6,34.3 
				132.6,34.6 132.7,35 132.8,35.3 			"/>
			<path class="st0" d="M134.6,39.4l0-0.2l0-0.2l0-0.2l0-0.2l0-0.2l0-0.2l0-0.2l0-0.2l0-0.2l0-0.2l-0.1-0.2l-0.1-0.2l-0.1-0.2
				l-0.1-0.2l-0.1-0.2l-0.1-0.2l-0.1-0.2l0-0.2l-0.1-0.2l0-0.2l0-0.2l0-0.2l0-0.2l-0.9,0.2l0,0.2l0,0.2l0,0.2l0,0.2l0.1,0.2l0.1,0.2
				l0.1,0.2l0.1,0.2l0.1,0.2l0.1,0.2l0.1,0.2l0,0.2l0,0.2l0,0.2l0,0.2l0,0.2l0,0.2l0,0.2l0,0.2l0,0.2l0,0.2l0,0.2l0,0.2l0,0.2l0,0.2
				l0,0.2v0.2l0,0.2l0,0.2C134.1,40.2,134.4,39.8,134.6,39.4"/>
			<path class="st0" d="M125.6,23.2L125.6,23.2l-0.2,0l-0.2,0.1l-0.2,0.1l-0.2,0.1l-0.2,0.1l-0.2,0.1l-0.2,0.1l-0.2,0.1l-0.2,0.1
				l-0.2,0.1l-0.2,0.1l-0.2,0.1l-0.2,0.1l-0.2,0.1l-0.2,0.1l-0.2,0.1l-0.2,0.1l-0.2,0.1l-0.2,0.1l-0.2,0l-0.2,0l-0.2,0l-0.2,0
				l-0.1,0l-0.1,0l-0.1,0l-0.1,0l-0.1-0.1l-0.1-0.1l-0.1-0.1v0c-0.2,0.2-0.5,0.3-0.7,0.5l0.1,0.1l0.2,0.2l0.2,0.1l0.2,0.1l0.2,0.1
				l0.2,0l0.2,0l0.2,0l0.2,0l0.2,0l0.2-0.1l0.2-0.1l0.2-0.1l0.2-0.1l0.2-0.1l0.2-0.1l0.2-0.1l0.2-0.1l0.2-0.1l0.2-0.1l0.2-0.1
				l0.2-0.1l0.2-0.1l0.2-0.1l0.2-0.1l0.2-0.1l0.2-0.1l0.2-0.1l0.2-0.1l0.1,0L125.6,23.2z"/>
			<polygon class="st0" points="135,25.5 135,25.5 134.8,25.3 134.6,25 134.3,24.8 134.1,24.5 133.8,24.3 133.6,24.1 133.3,23.9 
				133,23.8 132.7,23.6 132.5,23.5 132.2,23.3 131.9,23.2 131.6,23.1 131.3,23 131,23 130.7,22.9 130.4,22.8 130.1,22.8 129.8,22.8 
				129.5,22.7 129.2,22.7 128.9,22.7 128.6,22.7 128.3,22.8 127.9,22.8 127.6,22.8 127.3,22.9 126.9,22.9 126.6,23 126.2,23 
				125.9,23.1 125.6,23.2 125.7,24 126.1,23.9 126.4,23.9 126.7,23.8 127.1,23.8 127.4,23.7 127.7,23.7 128,23.6 128.3,23.6 
				128.6,23.6 128.9,23.6 129.2,23.6 129.5,23.6 129.8,23.6 130,23.7 130.3,23.7 130.6,23.7 130.8,23.8 131.1,23.9 131.3,24 
				131.6,24 131.8,24.1 132.1,24.3 132.3,24.4 132.6,24.5 132.8,24.7 133,24.8 133.3,25 133.5,25.2 133.7,25.4 133.9,25.6 
				134.2,25.9 134.4,26.1 			"/>
			<path class="st0" d="M136.4,36.2l0-0.2l-0.1-0.4l0-0.4l0-0.4l0-0.4l0-0.4l0-0.4l0-0.4l0-0.4l0-0.4l0-0.4l0-0.4l0-0.4l0-0.4l0-0.4
				l0-0.4l0-0.4l0-0.4l0-0.4l0-0.4l0-0.4l-0.1-0.3l-0.1-0.3l-0.1-0.3l-0.1-0.3l-0.1-0.3l-0.1-0.3l-0.2-0.3l-0.2-0.3l-0.7,0.6
				l0.1,0.2l0.1,0.2l0.1,0.2l0.1,0.2l0.1,0.3l0.1,0.3l0.1,0.3l0.1,0.3l0,0.3l0,0.3l0,0.3l0,0.4l0,0.4l0,0.4v0.4l0,0.4l0,0.4l0,0.4
				l0,0.4l0,0.4l0,0.4l0,0.4l0,0.4l0,0.4l0,0.4l0,0.4l0,0.4l0.1,0.4l0.1,0.4l0.1,0.4l0.1,0.4l0,0.1C136,37,136.2,36.6,136.4,36.2"/>
		</g>
		<path class="st0" d="M5.2,41.8h3.9v-3.3h6.2c1.2,0,1.6,0.4,1.6,1.8v1.5h3.9v-2.2c0-2.1-1-2.6-2.1-2.8v0c1.8-0.4,2.2-1.4,2.2-3.1
			v-0.8c0-2.3-0.8-3.8-3.8-3.8H5.2V41.8z M9.1,32.2h6.1c1.2,0,1.8,0.2,1.8,1.3V34c0,0.9-0.4,1.3-1.4,1.3H9.1V32.2z"/>
		<polygon class="st0" points="22.6,29 36.6,29 36.6,32 26.5,32 26.5,34 36,34 36,36.7 26.5,36.7 26.5,38.7 36.8,38.7 36.8,41.8 
			22.6,41.8 		"/>
		<polygon class="st0" points="38.2,29 44.3,29 51.6,38.3 51.7,38.3 51.7,29 55.6,29 55.6,41.8 49.5,41.8 42.1,32.5 42.1,32.5 
			42.1,41.8 38.2,41.8 		"/>
		<rect x="57.5" y="29" class="st0" width="3.9" height="12.8"/>
		<polygon class="st0" points="63.3,29 77.3,29 77.3,32 67.2,32 67.2,34 76.8,34 76.8,36.7 67.2,36.7 67.2,38.7 77.5,38.7 
			77.5,41.8 63.3,41.8 		"/>
		<path class="st0" d="M78.7,33.5c0-3.7,2.1-4.6,5.6-4.6h4.6c5.6,0,6.3,1.2,6.3,4.8h-3.9v-0.4c0-0.9-0.7-1.2-1.8-1.2h-4.3
			c-2.1,0-2.5,1-2.5,2.6v1.4c0,1.9,0.4,2.6,2.2,2.6h4.2c1.8,0,2.3-0.2,2.3-1.8h3.9v1.2c0,2.2-0.8,3.9-4.7,3.9h-6.3
			c-3.5,0-5.6-0.9-5.6-4.6V33.5z"/>
		<g>
			<polygon class="st1" points="147.4,55.4 0.6,55.4 0.6,24.9 118.1,24.9 118.1,25.5 1.2,25.5 1.2,54.8 146.8,54.8 146.8,25.5 
				137.2,25.5 137.2,24.9 147.4,24.9 			"/>
		</g>
		<g>
			<path class="st0" d="M24.6,50h-0.9v0.9h0.8c0.4,0,0.6-0.1,0.6-0.5C25.1,50.2,25,50,24.6,50z"/>
			<path class="st0" d="M27.8,49.9c-0.4,0-0.9,0.2-0.9,1.2c0,1,0.5,1.2,0.9,1.2c0.4,0,0.9-0.2,0.9-1.2
				C28.8,50.1,28.2,49.9,27.8,49.9z"/>
			<polygon class="st0" points="120.7,50.2 120.3,51.5 121.1,51.5 120.7,50.2 			"/>
			<path class="st0" d="M68.3,50h-0.7v2.2h0.7c0.6,0,0.8-0.6,0.8-1.2C69,50.1,68.6,50,68.3,50z"/>
			<polygon class="st0" points="36.2,50.2 35.7,51.5 36.6,51.5 36.2,50.2 			"/>
			<path class="st0" d="M124.2,50h-0.7v2.2h0.7c0.6,0,0.8-0.6,0.8-1.2C125,50.1,124.5,50,124.2,50z"/>
			<polygon class="st0" points="51.3,50.2 50.9,51.5 51.8,51.5 51.3,50.2 			"/>
			<path class="st0" d="M98.3,49.9c-0.4,0-0.9,0.2-0.9,1.2c0,1,0.5,1.2,0.9,1.2c0.4,0,0.9-0.2,0.9-1.2
				C99.2,50.1,98.7,49.9,98.3,49.9z"/>
			<polygon class="st0" points="90.2,50.2 89.7,51.5 90.6,51.5 90.2,50.2 			"/>
			<path class="st0" d="M127.7,49.9c-0.4,0-0.9,0.2-0.9,1.2c0,1,0.5,1.2,0.9,1.2c0.4,0,0.9-0.2,0.9-1.2
				C128.6,50.1,128.1,49.9,127.7,49.9z"/>
			<path class="st0" d="M6.9,50H6v0.9h0.8c0.4,0,0.6-0.1,0.6-0.5C7.4,50.2,7.3,50,6.9,50z"/>
			<path class="st0" d="M59,50h-0.7v2.2H59c0.6,0,0.8-0.6,0.8-1.2C59.8,50.1,59.3,50,59,50z"/>
			<path class="st0" d="M44.3,49.9c-0.4,0-0.9,0.2-0.9,1.2c0,1,0.5,1.2,0.9,1.2c0.4,0,0.9-0.2,0.9-1.2
				C45.2,50.1,44.7,49.9,44.3,49.9z"/>
			<path class="st0" d="M126.1,46.7c-2.4,1-5.3,1.2-7.5,0H0.7v8.5h146.5v-8.5H126.1z M98.5,48.3h0.7L98.5,49H98L98.5,48.3z
				 M8.2,52.8H7.4c0-0.2-0.1-0.3-0.1-0.7c0-0.5,0-0.7-0.6-0.7H6v1.3H5.3v-3.4H7c0.9,0,1.1,0.7,1.1,1c0,0.4-0.2,0.7-0.5,0.8
				C7.8,51.3,8,51.4,8,52C8,52.5,8,52.7,8.2,52.8L8.2,52.8z M11.3,52.8H8.7v-3.4h2.5V50H9.4v0.7h1.7v0.6H9.4v0.9h1.9V52.8z
				 M14.9,52.8h-0.5l-0.1-0.4c-0.2,0.2-0.4,0.5-1.1,0.5c-0.8,0-1.6-0.6-1.6-1.8c0-0.9,0.5-1.8,1.7-1.8c1.1,0,1.5,0.7,1.5,1.2h-0.7
				c0-0.1-0.2-0.6-0.8-0.6c-0.5,0-1,0.4-1,1.2c0,0.9,0.5,1.2,1,1.2c0.2,0,0.7-0.1,0.8-0.8h-0.8V51h1.4V52.8z M16.3,52.8h-0.7v-3.4
				h0.7V52.8z M18.2,52.9c-1.3,0-1.5-0.7-1.5-1.1h0.7c0,0.2,0.1,0.6,0.7,0.6c0.3,0,0.7-0.1,0.7-0.4c0-0.3-0.3-0.3-0.6-0.4l-0.4-0.1
				c-0.6-0.1-1.1-0.3-1.1-1c0-0.4,0.2-1.1,1.3-1.1c1.1,0,1.3,0.7,1.3,1.1h-0.7c0-0.2-0.1-0.5-0.7-0.5c-0.3,0-0.6,0.1-0.6,0.4
				c0,0.3,0.2,0.3,0.4,0.4l0.8,0.2c0.5,0.1,0.9,0.3,0.9,0.9C19.6,52.8,18.5,52.9,18.2,52.9z M22.6,50h-1v2.8h-0.7V50h-1v-0.6h2.8V50
				z M25.9,52.8h-0.8c0-0.2-0.1-0.3-0.1-0.7c0-0.5,0-0.7-0.6-0.7h-0.7v1.3H23v-3.4h1.7c0.9,0,1.1,0.7,1.1,1c0,0.4-0.2,0.7-0.5,0.8
				c0.3,0.1,0.4,0.2,0.4,0.9C25.7,52.5,25.7,52.7,25.9,52.8L25.9,52.8z M27.8,52.9c-0.5,0-1.7-0.2-1.7-1.8c0-1.6,1.2-1.8,1.7-1.8
				c0.5,0,1.7,0.2,1.7,1.8C29.5,52.7,28.3,52.9,27.8,52.9z M34.1,52.8h-0.7L32,50.4h0v2.4h-0.7v-3.4h0.8l1.4,2.4h0v-2.4h0.7V52.8z
				 M37,52.8l-0.2-0.7h-1.3l-0.2,0.7h-0.8l1.2-3.4h0.8l1.2,3.4H37z M39.5,52.3c0.4,0,0.7-0.2,0.8-0.6H41c-0.1,0.7-0.6,1.3-1.5,1.3
				c-0.9,0-1.6-0.6-1.6-1.8c0-1.2,0.7-1.8,1.6-1.8c1,0,1.4,0.7,1.5,1.2h-0.7c-0.1-0.2-0.2-0.6-0.8-0.6c-0.3,0-0.9,0.2-0.9,1.2
				C38.6,51.7,38.9,52.3,39.5,52.3z M42.2,52.8h-0.7v-3.4h0.7V52.8z M44.3,52.9c-0.5,0-1.7-0.2-1.7-1.8c0-1.6,1.2-1.8,1.7-1.8
				s1.7,0.2,1.7,1.8C46,52.7,44.8,52.9,44.3,52.9z M49.3,52.8h-0.7l-1.4-2.4h0v2.4h-0.7v-3.4h0.8l1.4,2.4h0v-2.4h0.7V52.8z
				 M52.2,52.8L52,52.1h-1.3l-0.2,0.7h-0.8l1.2-3.4h0.8l1.2,3.4H52.2z M55.8,52.8h-2.4v-3.4h0.7v2.8h1.7V52.8z M59.1,52.8h-1.5v-3.4
				h1.5c1.2,0,1.4,1,1.4,1.6C60.5,51.7,60.2,52.8,59.1,52.8z M63.7,52.8h-2.6v-3.4h2.5V50h-1.8v0.7h1.7v0.6h-1.7v0.9h1.9V52.8z
				 M66.2,52.8h-0.7v-3.4h0.7V52.8z M68.4,52.8h-1.5v-3.4h1.5c1.2,0,1.4,1,1.4,1.6C69.8,51.7,69.5,52.8,68.4,52.8z M72.9,52.8h-2.6
				v-3.4h2.5V50H71v0.7h1.7v0.6H71v0.9h1.9V52.8z M76.2,52.8h-0.7l-1.4-2.4h0v2.4h-0.7v-3.4h0.8l1.4,2.4h0v-2.4h0.7V52.8z M79.4,50
				h-1v2.8h-0.7V50h-1v-0.6h2.8V50z M80.5,52.8h-0.7v-3.4h0.7V52.8z M83.6,50h-1.7v0.8h1.5v0.6h-1.5v1.4h-0.7v-3.4h2.4V50z
				 M84.7,52.8H84v-3.4h0.7V52.8z M86.8,52.3c0.4,0,0.7-0.2,0.8-0.6h0.7c-0.1,0.7-0.6,1.3-1.5,1.3c-0.9,0-1.6-0.6-1.6-1.8
				c0-1.2,0.7-1.8,1.6-1.8c1,0,1.4,0.7,1.5,1.2h-0.7c-0.1-0.2-0.2-0.6-0.8-0.6c-0.3,0-0.9,0.2-0.9,1.2
				C85.9,51.7,86.2,52.3,86.8,52.3z M91,52.8l-0.2-0.7h-1.3l-0.2,0.7h-0.8l1.2-3.4h0.8l1.2,3.4H91z M93.5,52.3
				c0.4,0,0.7-0.2,0.8-0.6H95c-0.1,0.7-0.6,1.3-1.5,1.3c-0.9,0-1.6-0.6-1.6-1.8c0-1.2,0.7-1.8,1.6-1.8c1,0,1.4,0.7,1.5,1.2h-0.7
				c-0.1-0.2-0.2-0.6-0.8-0.6c-0.3,0-0.9,0.2-0.9,1.2C92.6,51.7,92.9,52.3,93.5,52.3z M96.2,52.8h-0.7v-3.4h0.7V52.8z M98.3,52.9
				c-0.5,0-1.7-0.2-1.7-1.8c0-1.6,1.2-1.8,1.7-1.8c0.5,0,1.7,0.2,1.7,1.8C100,52.7,98.8,52.9,98.3,52.9z M103.3,52.8h-0.7l-1.4-2.4
				h0v2.4h-0.7v-3.4h0.8l1.4,2.4h0v-2.4h0.7V52.8z M107.6,51.5v1.3h-0.7v-1.3l-1.2-2.1h0.8l0.7,1.5l0.7-1.5h0.8L107.6,51.5z
				 M113.1,52.8h-2.6v-3.4h2.5V50h-1.8v0.7h1.7v0.6h-1.7v0.9h1.9V52.8z M115,52.9c-1.3,0-1.5-0.7-1.5-1.1h0.7c0,0.2,0.1,0.6,0.7,0.6
				c0.3,0,0.7-0.1,0.7-0.4c0-0.3-0.3-0.3-0.6-0.4l-0.4-0.1c-0.6-0.1-1.1-0.3-1.1-1c0-0.4,0.2-1.1,1.3-1.1c1.1,0,1.3,0.7,1.3,1.1
				h-0.7c0-0.2-0.1-0.5-0.7-0.5c-0.3,0-0.6,0.1-0.6,0.4c0,0.3,0.2,0.3,0.4,0.4l0.8,0.2c0.5,0.1,0.9,0.3,0.9,0.9
				C116.3,52.8,115.3,52.9,115,52.9z M118.3,52.8h-0.7V50h-1v-0.6h2.8V50h-1V52.8z M121.5,52.8l-0.2-0.7h-1.3l-0.2,0.7h-0.8l1.2-3.4
				h0.8l1.2,3.4H121.5z M124.3,52.8h-1.5v-3.4h1.5c1.2,0,1.4,1,1.4,1.6C125.7,51.7,125.4,52.8,124.3,52.8z M127.7,52.9
				c-0.5,0-1.7-0.2-1.7-1.8c0-1.6,1.2-1.8,1.7-1.8c0.5,0,1.7,0.2,1.7,1.8C129.4,52.7,128.2,52.9,127.7,52.9z M132.7,52.3
				c0.4,0,0.7-0.2,0.8-0.6h0.7c-0.1,0.7-0.6,1.3-1.5,1.3c-0.9,0-1.6-0.6-1.6-1.8c0-1.2,0.7-1.8,1.6-1.8c1,0,1.4,0.7,1.5,1.2h-0.7
				c-0.1-0.2-0.2-0.6-0.8-0.6c-0.3,0-0.9,0.2-0.9,1.2C131.8,51.7,132.1,52.3,132.7,52.3z M135.3,52.8h-0.7v-3.4h0.7V52.8z
				 M137.6,52.8h-0.7l-1.2-3.4h0.8l0.7,2.6h0l0.7-2.6h0.7L137.6,52.8z M139.8,52.8h-0.7v-3.4h0.7V52.8z M142.9,52.8h-2.4v-3.4h0.7
				v2.8h1.7V52.8z"/>
		</g>
		<polygon class="st1" points="1.1,45.6 1.1,45 116,45 116.7,45.6 		"/>
		<polygon class="st1" points="146.9,45 146.9,45.6 128.2,45.6 129.2,45 		"/>
	</g>
</g>
</svg>
