<?xml version="1.0" encoding="UTF-8"?>
<!-- Generator: Adobe Illustrator 22.0.0, SVG Export Plug-In . SVG Version: 6.00 Build 0)  -->
<svg version="1.1" id="Capa_1" xmlns="http://www.w3.org/2000/svg" xmlns:xlink="http://www.w3.org/1999/xlink" x="0px" y="0px" viewBox="0 0 208.5 58" style="enable-background:new 0 0 208.5 58;" xml:space="preserve">
<style type="text/css">
	.st0{fill:#FFFFFF;}
</style>
<g id="XMLID_8735_">
	<g id="XMLID_9069_">
		<g id="XMLID_9070_">
			<g id="XMLID_9109_">
				<path id="XMLID_9110_" class="st0" d="M43.5,27.9c-0.3,0-0.5,0-0.8,0c-8.9-0.3-13.8-5.4-14-5.6c-0.2-0.2-0.2-0.6,0-0.8      c0.2-0.2,0.6-0.2,0.8,0c0.1,0.1,4.8,5,13.1,5.2c8.4,0.3,14-4,14.1-4.1c0.2-0.2,0.6-0.2,0.8,0.1c0.2,0.2,0.2,0.6-0.1,0.8      C57.2,23.7,51.9,27.9,43.5,27.9z"/>
			</g>
			<g id="XMLID_9107_">
				<path id="XMLID_9108_" class="st0" d="M28.3,51.8c-0.3,0-0.6-0.2-0.6-0.6s0.2-0.6,0.6-0.6c15.8,0,24.4-10,27.2-19.4      c3-10.2,0-20.4-7.7-25.6c-7.2-4.8-14.5-5.1-21.8-0.8c-5.6,3.1-9,7.7-9,7.8c-0.2,0.2-0.5,0.3-0.8,0.1c-0.2-0.2-0.3-0.5-0.1-0.8      c0.1-0.2,3.6-4.9,9.3-8.1c5.4-3,13.7-5.4,23.1,0.9c8.1,5.4,11.4,16.2,8.2,26.8C53.7,41.4,44.6,51.8,28.3,51.8z"/>
			</g>
			<g id="XMLID_9103_">
				<path id="XMLID_9104_" class="st0" d="M47.2,50.1c-3,0-6.5-0.4-9.7-1.7C26,43.9,23.1,37.7,23,37.4c0-0.1,0-0.1,0-0.2      c-0.2-1.4,1.6-11.5,8.7-19.3c2.6-2.9,5.7-5.2,9-6.6c-11.9-3.5-23.9,1.5-24.1,1.5c-0.3,0.1-0.6,0-0.7-0.3s0-0.6,0.3-0.7      c0.2-0.1,4.4-1.9,10.4-2.6c4.2-0.5,9.9-0.6,15.6,1.4c3.1-1.1,6.6-1.7,10.3-1.7c0.3,0,0.6,0.3,0.6,0.6c0,0.3-0.3,0.6-0.6,0.6l0,0      c-3,0-6,0.4-8.6,1.2c1.3,0.5,2.6,1.2,3.8,2c14.5,9.1,14.7,19.2,14.7,19.6c0,0.3-0.2,0.5-0.5,0.6c-1.5,0.1-3.3,0.5-3.6,0.9      c0,0,0,0,0,0.1c0.1,0.5,0.5,1.1,0.8,1.6c0.5,0.8,1,1.6,0.4,2.2c-0.4,0.4-1,0.7-1.5,1c0.2,0.4,0.4,0.9,0.2,1.4      c-0.2,0.4-0.7,0.7-1.1,1c-0.2,0.1-0.5,0.3-0.6,0.5c0,0.2,0.1,0.6,0.1,1c0.3,1.9,0.8,5.5-1.7,6.1C53,49.7,50.3,50.1,47.2,50.1z       M24.1,37c0.4,0.7,3.5,6.3,13.8,10.3c6.4,2.5,13.3,1.6,16.9,0.8c1.4-0.3,1.1-2.6,0.8-4.8c-0.1-0.5-0.1-0.9-0.1-1.2      c0-0.6,0.6-1,1.1-1.4c0.2-0.2,0.6-0.4,0.6-0.5c0-0.1-0.2-0.5-0.5-0.8c-0.1-0.1-0.2-0.3-0.1-0.5c0-0.2,0.2-0.3,0.3-0.4      c0.3-0.1,1.3-0.6,1.7-0.9c-0.1-0.2-0.3-0.6-0.5-0.9c-0.4-0.6-0.8-1.3-1-2c-0.1-0.3,0-0.7,0.2-1c0.7-0.9,2.8-1.2,3.9-1.3      c-0.2-2.1-2-10.6-14.1-18.2c-1.6-1-3.2-1.8-4.9-2.4c-3.6,1.4-7,3.7-9.8,6.8C25.9,26,24,35.5,24.1,37z"/>
			</g>
			<g id="XMLID_9101_">
				<path id="XMLID_9102_" class="st0" d="M56.3,47.2c-0.3,0-0.5-0.2-0.5-0.4c0-0.1-1.9-8.5-10.4-11.9c-12.8-5.2-21.3,2.6-21.4,2.7      c-0.2,0.2-0.6,0.2-0.8,0c-0.2-0.2-0.2-0.6,0-0.8c0.1-0.1,2.3-2.1,6.2-3.5c3.6-1.3,9.4-2.2,16.4,0.6c9.1,3.6,11,12.3,11.1,12.7      c0.1,0.3-0.1,0.6-0.4,0.7C56.4,47.2,56.4,47.2,56.3,47.2z"/>
			</g>
			<g id="XMLID_9099_">
				<path id="XMLID_9100_" class="st0" d="M43.2,57.2c-0.1,0-0.1,0-0.2,0l-15-5.4c-0.3-0.1-0.4-0.4-0.3-0.7c0.1-0.3,0.4-0.4,0.7-0.3      l14.2,5.1c0-1.4,0.1-4.4,1.5-5.9c0.6-0.6,1.2-0.9,2.1-0.9l0,0c0.3,0,0.6,0.2,0.6,0.6c0,0.3-0.2,0.6-0.6,0.6      c-0.5,0-0.9,0.2-1.2,0.5c-1.2,1.3-1.2,4.7-1.1,5.9c0,0.2-0.1,0.4-0.2,0.5C43.5,57.2,43.4,57.2,43.2,57.2z"/>
			</g>
			<g id="XMLID_9097_">
				<circle id="XMLID_9098_" class="st0" cx="16.8" cy="11.6" r="2.1"/>
			</g>
			<g id="XMLID_9095_">
				<circle id="XMLID_9096_" class="st0" cx="41.7" cy="10.8" r="2.1"/>
			</g>
			<g id="XMLID_9093_">
				<circle id="XMLID_9094_" class="st0" cx="57.2" cy="22.1" r="2.1"/>
			</g>
			<g id="XMLID_9091_">
				<circle id="XMLID_9092_" class="st0" cx="23.9" cy="36.8" r="3.2"/>
			</g>
			<g id="XMLID_9089_">
				<circle id="XMLID_9090_" class="st0" cx="18.9" cy="21.5" r="2.7"/>
			</g>
			<g id="XMLID_9087_">
				<circle id="XMLID_9088_" class="st0" cx="12.5" cy="29.6" r="2.2"/>
			</g>
			<g id="XMLID_9085_">
				<circle id="XMLID_9086_" class="st0" cx="8.4" cy="22.3" r="1.8"/>
			</g>
			<g id="XMLID_9083_">
				<circle id="XMLID_9084_" class="st0" cx="8.7" cy="38.7" r="1.8"/>
			</g>
			<g id="XMLID_9081_">
				<circle id="XMLID_9082_" class="st0" cx="2.5" cy="31.4" r="1.8"/>
			</g>
			<g id="XMLID_9079_">
				<circle id="XMLID_9080_" class="st0" cx="18.9" cy="44.7" r="2.7"/>
			</g>
			<g id="XMLID_9077_">
				<circle id="XMLID_9078_" class="st0" cx="29.3" cy="21.5" r="2.7"/>
			</g>
			<g id="XMLID_9075_">
				<circle id="XMLID_9076_" class="st0" cx="40.6" cy="48.9" r="2.1"/>
			</g>
			<g id="XMLID_9073_">
				<circle id="XMLID_9074_" class="st0" cx="52.7" cy="38.7" r="2.1"/>
			</g>
			<g id="XMLID_9071_">
				<circle id="XMLID_9072_" class="st0" cx="28.3" cy="51.2" r="1.4"/>
			</g>
		</g>
	</g>
	<g id="XMLID_9166_">
		<g id="XMLID_9068_">
			<path class="st0" d="M122.8,28.9v12.1h-3.3V11.8c2.8-0.5,5.9-0.7,9.1-0.7c1,0,1.9,0,2.7,0.1c0.8,0.1,1.6,0.2,2.4,0.3     c0.8,0.2,1.5,0.4,2.2,0.7c0.6,0.3,1.2,0.6,1.8,1.1c0.6,0.5,1,1,1.4,1.6c0.4,0.6,0.6,1.4,0.9,2.2c0.2,0.9,0.3,1.8,0.3,2.9     c0,1.5-0.2,2.7-0.5,3.8c-0.4,1.1-0.9,2-1.5,2.6c-0.6,0.7-1.4,1.2-2.4,1.6c-1,0.4-2,0.7-3.1,0.8c-1.1,0.1-2.3,0.2-3.7,0.2     C127.4,29.1,125.4,29.1,122.8,28.9z M122.8,14.1v12.1c1.7,0.2,3.6,0.3,5.8,0.3c1.1,0,2.1-0.1,2.9-0.2c0.8-0.1,1.6-0.3,2.3-0.6     c0.7-0.3,1.3-0.7,1.7-1.2c0.4-0.5,0.8-1.1,1-1.9c0.2-0.8,0.4-1.6,0.4-2.7c0-2.3-0.6-3.9-1.8-4.8c-1.2-1-3.3-1.4-6.3-1.4     C126.7,13.7,124.8,13.9,122.8,14.1z"/>
			<path class="st0" d="M155,41.4c-1.5,0-2.7-0.2-3.8-0.6c-1.1-0.4-2-0.9-2.7-1.6c-0.7-0.7-1.3-1.5-1.7-2.5c-0.4-1-0.7-2.1-0.9-3.2     c-0.2-1.1-0.3-2.4-0.3-3.8c0-2.1,0.2-3.9,0.5-5.3c0.3-1.4,0.9-2.6,1.7-3.6c0.8-1,1.8-1.7,3.1-2.1c1.3-0.4,2.8-0.6,4.7-0.6     c1.5,0,2.8,0.2,4,0.5c1.1,0.3,2.1,0.8,2.8,1.3c0.7,0.6,1.3,1.3,1.8,2.1c0.5,0.9,0.8,1.8,0.9,2.8c0.2,1,0.3,2.2,0.3,3.5     c0,0.7,0,1.4-0.1,2.2c-1.3,0.2-3.1,0.4-5.3,0.6c-2.3,0.2-4.2,0.4-5.8,0.4l-5.4,0.2c0.1,0.8,0.2,1.5,0.3,2.1s0.3,1.2,0.5,1.7     c0.2,0.6,0.5,1,0.9,1.4c0.4,0.4,0.8,0.7,1.4,1c0.5,0.3,1.2,0.5,1.9,0.6c0.7,0.1,1.6,0.2,2.5,0.2c2.2,0,4.9-0.2,8-0.6l0.3,2.5     c-1.6,0.2-3.1,0.4-4.5,0.6C158.6,41.3,157,41.4,155,41.4z M148.7,29.4l6-0.3c2.7-0.1,5.2-0.3,7.5-0.6c0-0.4,0.1-0.9,0.1-1.6     c0-1-0.1-1.9-0.3-2.6c-0.2-0.7-0.6-1.4-1.1-2c-0.5-0.6-1.2-1-2.1-1.3c-0.9-0.3-1.9-0.4-3.1-0.4c-1.1,0-2.1,0.1-2.9,0.4     c-0.8,0.2-1.5,0.6-2,1c-0.5,0.4-0.9,1-1.2,1.8c-0.3,0.7-0.5,1.6-0.6,2.4S148.7,28.1,148.7,29.4z"/>
			<path class="st0" d="M175.2,41.1h-3.1V23.8c0-1.4,0-2.7,0.1-3.9c2.3-1.2,5.1-1.8,8.5-1.8c0.8,0,1.5,0,2.1,0.1l-0.3,2.6     c-0.5-0.1-1.1-0.1-1.9-0.1c-0.9,0-1.9,0.1-2.9,0.3c-1,0.2-1.9,0.4-2.6,0.8c-0.1,1-0.1,2.2-0.1,3.6V41.1z"/>
			<path class="st0" d="M188.5,33.1V18.4h3.1v14.2c0,0.8,0,1.4,0.1,2c0.1,0.5,0.2,1,0.3,1.5c0.2,0.5,0.4,0.9,0.7,1.2     c0.3,0.3,0.7,0.6,1.2,0.8c0.5,0.2,1.1,0.4,1.8,0.5c0.7,0.1,1.5,0.2,2.5,0.2c1,0,2-0.1,3.2-0.3c1.2-0.2,2.2-0.5,2.8-0.8     c0.1-1,0.1-2.2,0.1-3.6V18.4h3.1v17.2c0,1.2,0,2.5-0.1,3.9c-2.9,1.3-6.3,1.9-10.2,1.9c-1.1,0-2-0.1-2.9-0.2     c-0.9-0.1-1.6-0.3-2.2-0.6c-0.6-0.3-1.1-0.6-1.5-1c-0.4-0.4-0.8-0.8-1-1.3c-0.2-0.4-0.4-0.9-0.6-1.6c-0.1-0.6-0.2-1.2-0.3-1.7     C188.5,34.5,188.5,33.8,188.5,33.1z M196.1,14.6l3.7-6.1h3.7l-5,6.1H196.1z"/>
		</g>
		<g id="XMLID_9067_">
			<path class="st0" d="M68.7,41.1V11.4h6v29.7H68.7z"/>
			<path class="st0" d="M82.2,40.5V11.9c2.9-0.6,6.1-0.8,9.7-0.8c1.2,0,2.4,0.1,3.4,0.2c1,0.1,1.9,0.3,2.8,0.6     c0.8,0.2,1.6,0.6,2.2,1c0.6,0.4,1.2,0.8,1.7,1.3c0.5,0.5,0.9,1,1.3,1.7s0.6,1.3,0.9,2c0.2,0.7,0.4,1.5,0.6,2.4s0.2,1.8,0.3,2.8     c0.1,0.9,0.1,2,0.1,3.2c0,1.2,0,2.2-0.1,3.2c-0.1,0.9-0.2,1.9-0.3,2.8c-0.1,0.9-0.3,1.7-0.6,2.4c-0.2,0.7-0.5,1.4-0.9,2     c-0.4,0.7-0.8,1.2-1.3,1.7c-0.5,0.5-1.1,0.9-1.7,1.3c-0.7,0.4-1.4,0.7-2.2,0.9c-0.8,0.2-1.7,0.4-2.8,0.6c-1,0.1-2.1,0.2-3.4,0.2     C88.4,41.4,85.2,41.1,82.2,40.5z M91.1,16c-0.9,0-1.8,0.1-2.8,0.2v20c1,0.1,1.9,0.2,2.8,0.2c1.1,0,2.1-0.1,2.9-0.3     c0.8-0.2,1.5-0.4,2.1-0.7c0.6-0.3,1-0.7,1.4-1.2c0.4-0.6,0.7-1.1,0.9-1.5c0.2-0.4,0.3-1.1,0.4-2s0.2-1.6,0.2-2.1     c0-0.6,0-1.4,0-2.4c0-1.1,0-1.9,0-2.4c0-0.6-0.1-1.3-0.2-2.1c-0.1-0.9-0.2-1.5-0.4-2c-0.2-0.5-0.5-1-0.9-1.5     c-0.4-0.6-0.8-1-1.4-1.2c-0.6-0.3-1.3-0.5-2.1-0.7S92.2,16,91.1,16z"/>
		</g>
		<g id="XMLID_9112_">
			<path class="st0" d="M69.8,48.8v2.1h-1.1v-5.5c0.6-0.1,1.2-0.2,1.8-0.2c0.2,0,0.4,0,0.5,0c0.2,0,0.3,0,0.5,0.1     c0.2,0,0.3,0.1,0.4,0.1c0.1,0.1,0.2,0.1,0.3,0.2c0.1,0.1,0.2,0.2,0.3,0.3c0.1,0.1,0.1,0.3,0.2,0.4c0,0.2,0.1,0.4,0.1,0.6     c0,0.2,0,0.4-0.1,0.6c0,0.2-0.1,0.3-0.2,0.4c-0.1,0.1-0.1,0.2-0.3,0.3c-0.1,0.1-0.2,0.2-0.3,0.2c-0.1,0.1-0.3,0.1-0.4,0.1     s-0.3,0.1-0.5,0.1c-0.2,0-0.3,0-0.5,0C70.3,48.9,70.1,48.8,69.8,48.8z M69.8,46.2v1.7c0.2,0,0.4,0,0.7,0c0.2,0,0.3,0,0.5,0     c0.1,0,0.2-0.1,0.3-0.1c0.1-0.1,0.2-0.2,0.2-0.3c0-0.1,0.1-0.3,0.1-0.5c0-0.3-0.1-0.6-0.2-0.7c-0.2-0.1-0.4-0.2-0.9-0.2     C70.3,46.1,70.1,46.2,69.8,46.2z"/>
			<path class="st0" d="M73.6,49.8V45h1.1v4.8c0,0.2,0,0.4,0.1,0.5c0,0.1,0.1,0.3,0.2,0.4L74,51.1c-0.1-0.2-0.2-0.4-0.3-0.6     C73.6,50.4,73.6,50.1,73.6,49.8z"/>
			<path class="st0" d="M77.2,51c-0.6,0-1-0.1-1.3-0.3c-0.3-0.2-0.4-0.6-0.4-1c0-0.4,0.1-0.7,0.3-0.9c0.2-0.2,0.5-0.4,0.9-0.4     c0.3,0,0.7-0.1,1.4-0.1c0-0.2-0.1-0.4-0.2-0.5c-0.1-0.1-0.3-0.2-0.6-0.2c-0.4,0-0.9,0-1.5,0.1l-0.1-0.8c0.6-0.1,1.2-0.2,1.7-0.2     c0.2,0,0.4,0,0.6,0c0.2,0,0.3,0.1,0.5,0.1c0.2,0.1,0.3,0.1,0.4,0.2c0.1,0.1,0.2,0.2,0.2,0.4c0.1,0.2,0.1,0.4,0.1,0.6v1.8     c0,0.3,0,0.5,0,0.8C78.6,50.9,78,51,77.2,51z M78.1,49.5v-0.6c0,0-0.1,0-0.2,0c-0.1,0-0.1,0-0.2,0c0,0-0.1,0-0.2,0     c-0.1,0-0.1,0-0.2,0c0,0-0.1,0-0.2,0c-0.1,0-0.1,0-0.2,0c-0.1,0-0.2,0.1-0.3,0.1c-0.1,0-0.1,0.1-0.2,0.2c0,0.1-0.1,0.2-0.1,0.4     c0,0.2,0.1,0.4,0.2,0.4c0.1,0.1,0.3,0.1,0.6,0.1c0.3,0,0.6,0,0.8-0.1C78.1,49.9,78.1,49.7,78.1,49.5z"/>
			<path class="st0" d="M80.5,45.6l1.1-0.2v1.2h0.9v0.8h-0.9v2.2c0,0.2,0,0.3,0.1,0.4s0.2,0.1,0.4,0.1c0.1,0,0.2,0,0.4,0l0.1,0.8     C82.3,51,82,51,81.8,51c-0.4,0-0.8-0.1-1-0.3c-0.2-0.2-0.3-0.5-0.3-0.9v-2.3h-0.7v-0.8h0.7V45.6z"/>
			<path class="st0" d="M84.8,51c-0.6,0-1-0.1-1.3-0.3c-0.3-0.2-0.4-0.6-0.4-1c0-0.4,0.1-0.7,0.3-0.9c0.2-0.2,0.5-0.4,0.9-0.4     c0.3,0,0.7-0.1,1.4-0.1c0-0.2-0.1-0.4-0.2-0.5c-0.1-0.1-0.3-0.2-0.6-0.2c-0.4,0-0.9,0-1.5,0.1l-0.1-0.8c0.6-0.1,1.2-0.2,1.7-0.2     c0.2,0,0.4,0,0.6,0c0.2,0,0.3,0.1,0.5,0.1c0.2,0.1,0.3,0.1,0.4,0.2c0.1,0.1,0.2,0.2,0.2,0.4c0.1,0.2,0.1,0.4,0.1,0.6v1.8     c0,0.3,0,0.5,0,0.8C86.3,50.9,85.6,51,84.8,51z M85.7,49.5v-0.6c0,0-0.1,0-0.2,0c-0.1,0-0.1,0-0.2,0c0,0-0.1,0-0.2,0     c-0.1,0-0.1,0-0.2,0c0,0-0.1,0-0.2,0c-0.1,0-0.1,0-0.2,0c-0.1,0-0.2,0.1-0.3,0.1c-0.1,0-0.1,0.1-0.2,0.2c0,0.1-0.1,0.2-0.1,0.4     c0,0.2,0.1,0.4,0.2,0.4c0.1,0.1,0.3,0.1,0.6,0.1c0.3,0,0.6,0,0.8-0.1C85.7,49.9,85.7,49.7,85.7,49.5z"/>
			<path class="st0" d="M89.3,46.3v0.4h0.9v0.8h-0.9v3.5h-1.1v-3.5h-0.7v-0.8h0.7v-0.4c0-0.4,0.1-0.8,0.3-1c0.2-0.2,0.6-0.3,1-0.3     c0.2,0,0.4,0,0.7,0l-0.1,0.7h-0.3C89.5,45.7,89.3,45.9,89.3,46.3z"/>
			<path class="st0" d="M93.6,50.9C93.3,50.9,93,51,92.7,51c-0.4,0-0.7,0-0.9-0.1c-0.2-0.1-0.4-0.2-0.6-0.4     c-0.2-0.2-0.3-0.4-0.3-0.7c-0.1-0.3-0.1-0.6-0.1-1c0-0.3,0-0.6,0.1-0.8c0-0.2,0.1-0.4,0.2-0.6c0.1-0.2,0.2-0.3,0.4-0.4     c0.2-0.1,0.3-0.2,0.5-0.2c0.2-0.1,0.5-0.1,0.7-0.1c0.4,0,0.7,0,0.9,0.1c0.2,0.1,0.4,0.2,0.6,0.4s0.3,0.4,0.3,0.7     c0.1,0.3,0.1,0.6,0.1,1c0,0.4,0,0.7-0.1,1c-0.1,0.3-0.2,0.5-0.3,0.7C94,50.7,93.8,50.8,93.6,50.9z M92.7,50.1     c0.2,0,0.3,0,0.4-0.1c0.1,0,0.2-0.1,0.3-0.2c0.1-0.1,0.1-0.2,0.1-0.4c0-0.2,0-0.4,0-0.7c0-0.3,0-0.5,0-0.7c0-0.2-0.1-0.3-0.1-0.4     c-0.1-0.1-0.2-0.2-0.3-0.2c-0.1,0-0.2-0.1-0.4-0.1c-0.1,0-0.2,0-0.3,0c-0.1,0-0.2,0-0.2,0.1c-0.1,0-0.1,0.1-0.2,0.2     c0,0.1-0.1,0.1-0.1,0.2c0,0.1,0,0.2-0.1,0.4s0,0.3,0,0.5c0,0.2,0,0.3,0,0.5s0,0.2,0.1,0.4c0,0.1,0.1,0.2,0.1,0.2     c0,0.1,0.1,0.1,0.2,0.2c0.1,0,0.1,0.1,0.2,0.1C92.4,50.1,92.5,50.1,92.7,50.1z"/>
			<path class="st0" d="M96.6,50.9h-1.1v-3.1c0-0.3,0-0.6,0-0.8c0.2-0.1,0.5-0.2,0.8-0.3c0.3-0.1,0.6-0.1,0.9-0.1c0.2,0,0.3,0,0.4,0     l-0.1,0.9c-0.1,0-0.2,0-0.3,0c-0.1,0-0.3,0-0.4,0c-0.1,0-0.2,0.1-0.3,0.1c0,0.2,0,0.4,0,0.6V50.9z"/>
			<path class="st0" d="M99.5,48.1v2.8h-1.1v-3.1c0-0.3,0-0.5,0-0.8c0.2-0.1,0.5-0.2,0.8-0.3c0.3-0.1,0.6-0.1,1-0.1     c0.4,0,0.8,0.1,1,0.2c0.4-0.2,0.9-0.2,1.3-0.2c0.2,0,0.4,0,0.5,0c0.2,0,0.3,0.1,0.4,0.1c0.1,0.1,0.2,0.1,0.3,0.2s0.1,0.2,0.2,0.3     c0,0.1,0.1,0.2,0.1,0.3c0,0.1,0,0.2,0.1,0.3c0,0.1,0,0.2,0,0.4v2.7h-1.1v-2.6c0-0.1,0-0.3,0-0.4s-0.1-0.2-0.1-0.3     c-0.1-0.1-0.1-0.1-0.2-0.2c-0.1,0-0.2-0.1-0.4-0.1c-0.2,0-0.4,0-0.6,0.1c0,0.2,0.1,0.4,0.1,0.6v2.7h-1.1v-2.6c0-0.1,0-0.2,0-0.3     c0-0.1,0-0.2-0.1-0.2c0-0.1-0.1-0.1-0.1-0.2c-0.1,0-0.1-0.1-0.2-0.1c-0.1,0-0.2,0-0.3,0c-0.1,0-0.2,0-0.3,0c-0.1,0-0.2,0-0.3,0.1     C99.5,47.7,99.5,47.9,99.5,48.1z"/>
			<path class="st0" d="M106.7,51c-0.6,0-1-0.1-1.3-0.3c-0.3-0.2-0.4-0.6-0.4-1c0-0.4,0.1-0.7,0.3-0.9c0.2-0.2,0.5-0.4,0.9-0.4     c0.3,0,0.7-0.1,1.4-0.1c0-0.2-0.1-0.4-0.2-0.5c-0.1-0.1-0.3-0.2-0.6-0.2c-0.4,0-0.9,0-1.5,0.1l-0.1-0.8c0.6-0.1,1.2-0.2,1.7-0.2     c0.2,0,0.4,0,0.6,0c0.2,0,0.3,0.1,0.5,0.1c0.2,0.1,0.3,0.1,0.4,0.2c0.1,0.1,0.2,0.2,0.2,0.4c0.1,0.2,0.1,0.4,0.1,0.6v1.8     c0,0.3,0,0.5,0,0.8C108.2,50.9,107.6,51,106.7,51z M107.6,49.5v-0.6c0,0-0.1,0-0.2,0c-0.1,0-0.1,0-0.2,0c0,0-0.1,0-0.2,0     c-0.1,0-0.1,0-0.2,0c0,0-0.1,0-0.2,0c-0.1,0-0.1,0-0.2,0c-0.1,0-0.2,0.1-0.3,0.1c-0.1,0-0.1,0.1-0.2,0.2c0,0.1-0.1,0.2-0.1,0.4     c0,0.2,0.1,0.4,0.2,0.4c0.1,0.1,0.3,0.1,0.6,0.1c0.3,0,0.6,0,0.8-0.1C107.6,49.9,107.6,49.7,107.6,49.5z"/>
			<path class="st0" d="M114.3,46.7V45h1.1v4.8c0,0.3,0,0.5,0,0.8c-0.2,0.1-0.5,0.2-0.8,0.3c-0.3,0.1-0.6,0.1-0.9,0.1     c-0.2,0-0.5,0-0.6,0c-0.2,0-0.4-0.1-0.5-0.2c-0.2-0.1-0.3-0.2-0.4-0.3c-0.1-0.1-0.2-0.3-0.3-0.4c-0.1-0.2-0.1-0.4-0.2-0.6     c0-0.2-0.1-0.5-0.1-0.7c0-0.3,0-0.6,0.1-0.9c0-0.2,0.1-0.5,0.2-0.6c0.1-0.2,0.2-0.3,0.4-0.4c0.2-0.1,0.3-0.2,0.5-0.2     c0.2,0,0.4-0.1,0.7-0.1C113.8,46.6,114.1,46.6,114.3,46.7z M114.3,47.5c-0.2-0.1-0.4-0.1-0.6-0.1c-0.1,0-0.3,0-0.4,0     c-0.1,0-0.2,0.1-0.3,0.1c-0.1,0-0.1,0.1-0.2,0.2c-0.1,0.1-0.1,0.1-0.1,0.2c0,0.1,0,0.1-0.1,0.3c0,0.1,0,0.2,0,0.3s0,0.2,0,0.3     c0,0.1,0,0.2,0,0.3c0,0.1,0,0.2,0,0.3c0,0.1,0,0.2,0.1,0.3c0,0.1,0.1,0.1,0.1,0.2c0,0.1,0.1,0.1,0.2,0.2c0.1,0,0.1,0.1,0.2,0.1     c0.1,0,0.2,0,0.3,0c0.3,0,0.5,0,0.7-0.1c0-0.2,0-0.4,0-0.6V47.5z"/>
			<path class="st0" d="M118.2,51c-0.3,0-0.5,0-0.7-0.1c-0.2-0.1-0.4-0.2-0.5-0.3c-0.1-0.1-0.2-0.3-0.3-0.5     c-0.1-0.2-0.1-0.4-0.2-0.6c0-0.2-0.1-0.5-0.1-0.7c0-0.4,0-0.7,0.1-1c0.1-0.3,0.2-0.5,0.3-0.7c0.2-0.2,0.3-0.3,0.6-0.4     c0.2-0.1,0.5-0.1,0.9-0.1c0.2,0,0.4,0,0.6,0.1c0.2,0,0.3,0.1,0.5,0.1c0.1,0.1,0.2,0.1,0.3,0.2c0.1,0.1,0.2,0.2,0.2,0.3     c0.1,0.1,0.1,0.2,0.1,0.4c0,0.2,0.1,0.3,0.1,0.5c0,0.2,0,0.3,0,0.5c0,0.1,0,0.2,0,0.3c-0.2,0-0.6,0.1-1,0.1     c-0.4,0-0.8,0.1-1.1,0.1l-0.7,0c0,0.2,0,0.3,0.1,0.4c0,0.1,0.1,0.2,0.2,0.3c0.1,0.1,0.2,0.1,0.3,0.1c0.1,0,0.3,0,0.4,0     c0.4,0,0.9,0,1.5-0.1l0.1,0.8C119.4,50.9,118.8,51,118.2,51z M117.4,48.6l0.7,0c0.4,0,0.7,0,1-0.1c0,0,0-0.1,0-0.2     c0-0.3-0.1-0.5-0.2-0.7c-0.1-0.1-0.3-0.2-0.6-0.2c-0.2,0-0.3,0-0.4,0.1c-0.1,0-0.2,0.1-0.3,0.2c-0.1,0.1-0.1,0.1-0.2,0.3     c0,0.1-0.1,0.2-0.1,0.3C117.4,48.3,117.4,48.4,117.4,48.6z"/>
			<path class="st0" d="M123.9,50.9h-1.2l1.7-4.9c0.1-0.3,0.2-0.5,0.4-0.6c0.2-0.1,0.3-0.2,0.6-0.2c0.4,0,0.7,0.3,0.9,0.8l1.6,4.9     h-1.2l-0.4-1.4h-1.9L123.9,50.9z M124.6,48.7h1.4l-0.7-2.3L124.6,48.7z"/>
			<path class="st0" d="M128.5,49.4v-2.7h1.1v2.6c0,0.1,0,0.2,0,0.3c0,0.1,0,0.1,0,0.2c0,0.1,0.1,0.1,0.1,0.2c0,0,0.1,0.1,0.2,0.1     c0.1,0,0.1,0.1,0.2,0.1c0.1,0,0.2,0,0.3,0c0.3,0,0.5,0,0.7-0.1c0-0.2,0-0.4,0-0.6v-2.8h1.1v3.1c0,0.3,0,0.6,0,0.8     c-0.5,0.3-1.1,0.4-1.9,0.4c-0.2,0-0.3,0-0.5,0c-0.1,0-0.3,0-0.4-0.1c-0.1,0-0.2-0.1-0.3-0.1c-0.1,0-0.2-0.1-0.2-0.2     c-0.1-0.1-0.1-0.1-0.2-0.2c0-0.1-0.1-0.1-0.1-0.2c0-0.1,0-0.2-0.1-0.3c0-0.1,0-0.2,0-0.3C128.5,49.6,128.5,49.5,128.5,49.4z"/>
			<path class="st0" d="M133.6,45.6l1.1-0.2v1.2h0.9v0.8h-0.9v2.2c0,0.2,0,0.3,0.1,0.4c0.1,0.1,0.2,0.1,0.4,0.1c0.1,0,0.2,0,0.4,0     l0.1,0.8c-0.3,0-0.5,0.1-0.7,0.1c-0.4,0-0.8-0.1-1-0.3c-0.2-0.2-0.3-0.5-0.3-0.9v-2.3h-0.7v-0.8h0.7V45.6z"/>
			<path class="st0" d="M138,51c-0.3,0-0.5,0-0.7-0.1c-0.2-0.1-0.4-0.2-0.5-0.3c-0.1-0.1-0.2-0.3-0.3-0.5c-0.1-0.2-0.1-0.4-0.2-0.6     c0-0.2-0.1-0.5-0.1-0.7c0-0.4,0-0.7,0.1-1c0.1-0.3,0.2-0.5,0.3-0.7c0.2-0.2,0.3-0.3,0.6-0.4c0.2-0.1,0.5-0.1,0.9-0.1     c0.2,0,0.4,0,0.6,0.1c0.2,0,0.3,0.1,0.5,0.1c0.1,0.1,0.2,0.1,0.3,0.2c0.1,0.1,0.2,0.2,0.2,0.3c0.1,0.1,0.1,0.2,0.1,0.4     c0,0.2,0.1,0.3,0.1,0.5c0,0.2,0,0.3,0,0.5c0,0.1,0,0.2,0,0.3c-0.2,0-0.6,0.1-1,0.1c-0.4,0-0.8,0.1-1.1,0.1l-0.7,0     c0,0.2,0,0.3,0.1,0.4c0,0.1,0.1,0.2,0.2,0.3c0.1,0.1,0.2,0.1,0.3,0.1c0.1,0,0.3,0,0.4,0c0.4,0,0.9,0,1.5-0.1l0.1,0.8     C139.2,50.9,138.6,51,138,51z M137.2,48.6l0.7,0c0.4,0,0.7,0,1-0.1c0,0,0-0.1,0-0.2c0-0.3-0.1-0.5-0.2-0.7     c-0.1-0.1-0.3-0.2-0.6-0.2c-0.2,0-0.3,0-0.4,0.1c-0.1,0-0.2,0.1-0.3,0.2c-0.1,0.1-0.1,0.1-0.2,0.3c0,0.1-0.1,0.2-0.1,0.3     C137.2,48.3,137.2,48.4,137.2,48.6z"/>
			<path class="st0" d="M142,48.1v2.8h-1.1v-3.1c0-0.3,0-0.5,0-0.8c0.5-0.3,1.1-0.4,1.9-0.4c0.2,0,0.4,0,0.6,0     c0.2,0,0.3,0.1,0.4,0.1c0.1,0,0.2,0.1,0.3,0.2c0.1,0.1,0.2,0.2,0.2,0.2c0,0.1,0.1,0.2,0.1,0.3c0,0.1,0,0.2,0.1,0.3     c0,0.1,0,0.2,0,0.4v2.7h-1.1v-2.6c0-0.1,0-0.2,0-0.3c0-0.1,0-0.1,0-0.2c0-0.1-0.1-0.1-0.1-0.2c0,0-0.1-0.1-0.2-0.1     c-0.1,0-0.1-0.1-0.2-0.1c-0.1,0-0.2,0-0.3,0c-0.3,0-0.5,0-0.7,0.1C142,47.7,142,47.9,142,48.1z"/>
			<path class="st0" d="M146,45.6l1.1-0.2v1.2h0.9v0.8H147v2.2c0,0.2,0,0.3,0.1,0.4s0.2,0.1,0.4,0.1c0.1,0,0.2,0,0.4,0l0.1,0.8     c-0.3,0-0.5,0.1-0.7,0.1c-0.4,0-0.8-0.1-1-0.3c-0.2-0.2-0.3-0.5-0.3-0.9v-2.3h-0.7v-0.8h0.7V45.6z"/>
			<path class="st0" d="M149.8,46c-0.1,0.1-0.3,0.1-0.5,0.1c-0.2,0-0.4,0-0.5-0.1c-0.1-0.1-0.1-0.2-0.1-0.5c0-0.2,0-0.4,0.1-0.5     c0.1-0.1,0.3-0.1,0.5-0.1s0.4,0,0.5,0.1c0.1,0.1,0.1,0.2,0.1,0.5C150,45.7,149.9,45.9,149.8,46z M148.8,50.9v-4.3h1.1v4.3H148.8z     "/>
			<path class="st0" d="M153.7,50l0.1,0.8c-0.4,0.1-0.9,0.2-1.4,0.2c-0.2,0-0.4,0-0.5-0.1c-0.2,0-0.3-0.1-0.4-0.2s-0.2-0.2-0.3-0.3     c-0.1-0.1-0.2-0.2-0.2-0.4c-0.1-0.1-0.1-0.3-0.1-0.4s-0.1-0.3-0.1-0.5c0-0.1,0-0.3,0-0.5c0-0.2,0-0.4,0-0.6c0-0.2,0-0.3,0.1-0.5     c0-0.2,0.1-0.3,0.2-0.4c0.1-0.1,0.1-0.2,0.2-0.3c0.1-0.1,0.2-0.2,0.3-0.2c0.1-0.1,0.3-0.1,0.5-0.1c0.2,0,0.4,0,0.6,0     c0.4,0,0.8,0.1,1.1,0.2l-0.1,0.8c-0.3-0.1-0.6-0.1-0.8-0.1c-0.1,0-0.2,0-0.3,0c-0.1,0-0.2,0-0.3,0c-0.1,0-0.1,0.1-0.2,0.1     c-0.1,0-0.1,0.1-0.1,0.1c0,0.1-0.1,0.1-0.1,0.2c0,0.1,0,0.1-0.1,0.2s0,0.2,0,0.3c0,0.1,0,0.2,0,0.3c0,0.2,0,0.3,0,0.4     c0,0.1,0,0.2,0,0.3c0,0.1,0,0.2,0.1,0.3c0,0.1,0.1,0.1,0.1,0.2c0.1,0.1,0.1,0.1,0.2,0.1c0.1,0,0.2,0.1,0.3,0.1c0.1,0,0.2,0,0.4,0     C153.2,50.1,153.4,50.1,153.7,50z"/>
			<path class="st0" d="M156.2,51c-0.6,0-1-0.1-1.3-0.3c-0.3-0.2-0.4-0.6-0.4-1c0-0.4,0.1-0.7,0.3-0.9s0.5-0.4,0.9-0.4     c0.3,0,0.7-0.1,1.4-0.1c0-0.2-0.1-0.4-0.2-0.5c-0.1-0.1-0.3-0.2-0.6-0.2c-0.4,0-0.9,0-1.5,0.1l-0.1-0.8c0.6-0.1,1.2-0.2,1.7-0.2     c0.2,0,0.4,0,0.6,0c0.2,0,0.3,0.1,0.5,0.1c0.2,0.1,0.3,0.1,0.4,0.2c0.1,0.1,0.2,0.2,0.2,0.4c0.1,0.2,0.1,0.4,0.1,0.6v1.8     c0,0.3,0,0.5,0,0.8C157.6,50.9,157,51,156.2,51z M157.1,49.5v-0.6c0,0-0.1,0-0.2,0c-0.1,0-0.1,0-0.2,0c0,0-0.1,0-0.2,0     s-0.1,0-0.2,0c0,0-0.1,0-0.2,0c-0.1,0-0.1,0-0.2,0c-0.1,0-0.2,0.1-0.3,0.1c-0.1,0-0.1,0.1-0.2,0.2c0,0.1-0.1,0.2-0.1,0.4     c0,0.2,0.1,0.4,0.2,0.4c0.1,0.1,0.3,0.1,0.6,0.1c0.3,0,0.6,0,0.8-0.1C157.1,49.9,157.1,49.7,157.1,49.5z"/>
			<path class="st0" d="M162,50l0.1,0.8c-0.4,0.1-0.9,0.2-1.4,0.2c-0.2,0-0.4,0-0.5-0.1c-0.2,0-0.3-0.1-0.4-0.2s-0.2-0.2-0.3-0.3     c-0.1-0.1-0.2-0.2-0.2-0.4c-0.1-0.1-0.1-0.3-0.1-0.4c0-0.2-0.1-0.3-0.1-0.5c0-0.1,0-0.3,0-0.5c0-0.2,0-0.4,0-0.6     c0-0.2,0-0.3,0.1-0.5c0-0.2,0.1-0.3,0.2-0.4c0.1-0.1,0.1-0.2,0.2-0.3c0.1-0.1,0.2-0.2,0.3-0.2c0.1-0.1,0.3-0.1,0.5-0.1     c0.2,0,0.4,0,0.6,0c0.4,0,0.8,0.1,1.1,0.2l-0.1,0.8c-0.3-0.1-0.6-0.1-0.8-0.1c-0.1,0-0.2,0-0.3,0c-0.1,0-0.2,0-0.3,0     c-0.1,0-0.1,0.1-0.2,0.1c-0.1,0-0.1,0.1-0.1,0.1c0,0.1-0.1,0.1-0.1,0.2c0,0.1,0,0.1-0.1,0.2c0,0.1,0,0.2,0,0.3c0,0.1,0,0.2,0,0.3     c0,0.2,0,0.3,0,0.4c0,0.1,0,0.2,0,0.3s0,0.2,0.1,0.3c0,0.1,0.1,0.1,0.1,0.2c0.1,0.1,0.1,0.1,0.2,0.1c0.1,0,0.2,0.1,0.3,0.1     c0.1,0,0.2,0,0.4,0C161.4,50.1,161.7,50.1,162,50z"/>
			<path class="st0" d="M164,46c-0.1,0.1-0.3,0.1-0.5,0.1c-0.2,0-0.4,0-0.5-0.1c-0.1-0.1-0.1-0.2-0.1-0.5c0-0.2,0-0.4,0.1-0.5     c0.1-0.1,0.3-0.1,0.5-0.1s0.4,0,0.5,0.1c0.1,0.1,0.1,0.2,0.1,0.5C164.1,45.7,164.1,45.9,164,46z M163,50.9v-4.3h1.1v4.3H163z"/>
			<path class="st0" d="M166.9,51c-0.4,0-0.7,0-0.9-0.1c-0.2-0.1-0.4-0.2-0.6-0.4s-0.3-0.4-0.3-0.7c-0.1-0.3-0.1-0.6-0.1-1     c0-0.4,0-0.7,0.1-1c0.1-0.3,0.2-0.5,0.3-0.7c0.2-0.2,0.4-0.3,0.6-0.4c0.2-0.1,0.5-0.1,0.9-0.1c0.3,0,0.5,0,0.7,0.1     c0.2,0.1,0.4,0.1,0.5,0.2c0.2,0.1,0.3,0.3,0.4,0.4s0.2,0.4,0.2,0.6s0.1,0.5,0.1,0.8c0,0.4,0,0.7-0.1,1c-0.1,0.3-0.2,0.5-0.3,0.7     c-0.2,0.2-0.4,0.3-0.6,0.4C167.6,50.9,167.3,51,166.9,51z M166.9,50.1c0.1,0,0.3,0,0.3,0c0.1,0,0.2-0.1,0.2-0.1     c0.1-0.1,0.1-0.1,0.2-0.2c0-0.1,0.1-0.2,0.1-0.4c0-0.1,0-0.3,0-0.5c0-0.2,0-0.3,0-0.5c0-0.1,0-0.2-0.1-0.3c0-0.1-0.1-0.2-0.1-0.3     c0-0.1-0.1-0.1-0.2-0.2c-0.1,0-0.1-0.1-0.2-0.1s-0.2,0-0.3,0c-0.1,0-0.3,0-0.3,0s-0.2,0.1-0.2,0.1c-0.1,0.1-0.1,0.1-0.2,0.2     c0,0.1-0.1,0.2-0.1,0.4c0,0.1,0,0.3,0,0.6c0,0.2,0,0.3,0,0.5c0,0.1,0,0.2,0.1,0.4c0,0.1,0.1,0.2,0.1,0.3s0.1,0.1,0.2,0.2     c0.1,0,0.1,0.1,0.2,0.1C166.7,50.1,166.8,50.1,166.9,50.1z M166.4,46.1l0.7-1.3h1.1l-1,1.3H166.4z"/>
			<path class="st0" d="M170.9,48.1v2.8h-1.1v-3.1c0-0.3,0-0.5,0-0.8c0.5-0.3,1.1-0.4,1.9-0.4c0.2,0,0.4,0,0.6,0     c0.2,0,0.3,0.1,0.4,0.1c0.1,0,0.2,0.1,0.3,0.2c0.1,0.1,0.2,0.2,0.2,0.2c0,0.1,0.1,0.2,0.1,0.3c0,0.1,0,0.2,0.1,0.3     c0,0.1,0,0.2,0,0.4v2.7h-1.1v-2.6c0-0.1,0-0.2,0-0.3c0-0.1,0-0.1,0-0.2c0-0.1-0.1-0.1-0.1-0.2c0,0-0.1-0.1-0.2-0.1     c-0.1,0-0.1-0.1-0.2-0.1c-0.1,0-0.2,0-0.3,0c-0.3,0-0.5,0-0.7,0.1C170.9,47.7,170.9,47.9,170.9,48.1z"/>
			<path class="st0" d="M178.3,46l1.8,3.4v-4.1h1v4.8c0,0.6-0.2,0.9-0.7,0.9c-0.2,0-0.4-0.1-0.5-0.2c-0.1-0.1-0.3-0.3-0.4-0.6     l-1.8-3.4v4.1h-1v-4.8c0-0.6,0.2-0.9,0.7-0.9c0.2,0,0.4,0.1,0.5,0.2C178,45.5,178.2,45.7,178.3,46z"/>
			<path class="st0" d="M183.7,51c-0.6,0-1-0.1-1.3-0.3c-0.3-0.2-0.4-0.6-0.4-1c0-0.4,0.1-0.7,0.3-0.9s0.5-0.4,0.9-0.4     c0.3,0,0.7-0.1,1.4-0.1c0-0.2-0.1-0.4-0.2-0.5c-0.1-0.1-0.3-0.2-0.6-0.2c-0.4,0-0.9,0-1.5,0.1l-0.1-0.8c0.6-0.1,1.2-0.2,1.7-0.2     c0.2,0,0.4,0,0.6,0c0.2,0,0.3,0.1,0.5,0.1c0.2,0.1,0.3,0.1,0.4,0.2c0.1,0.1,0.2,0.2,0.2,0.4c0.1,0.2,0.1,0.4,0.1,0.6v1.8     c0,0.3,0,0.5,0,0.8C185.2,50.9,184.5,51,183.7,51z M184.6,49.5v-0.6c0,0-0.1,0-0.2,0c-0.1,0-0.1,0-0.2,0c0,0-0.1,0-0.2,0     c-0.1,0-0.1,0-0.2,0c0,0-0.1,0-0.2,0s-0.1,0-0.2,0c-0.1,0-0.2,0.1-0.3,0.1s-0.1,0.1-0.2,0.2c0,0.1-0.1,0.2-0.1,0.4     c0,0.2,0.1,0.4,0.2,0.4c0.1,0.1,0.3,0.1,0.6,0.1c0.3,0,0.6,0,0.8-0.1C184.6,49.9,184.6,49.7,184.6,49.5z"/>
			<path class="st0" d="M189.6,50l0.1,0.8c-0.4,0.1-0.9,0.2-1.4,0.2c-0.2,0-0.4,0-0.5-0.1c-0.2,0-0.3-0.1-0.4-0.2s-0.2-0.2-0.3-0.3     c-0.1-0.1-0.2-0.2-0.2-0.4c-0.1-0.1-0.1-0.3-0.1-0.4s-0.1-0.3-0.1-0.5c0-0.1,0-0.3,0-0.5c0-0.2,0-0.4,0-0.6c0-0.2,0-0.3,0.1-0.5     c0-0.2,0.1-0.3,0.2-0.4c0.1-0.1,0.1-0.2,0.2-0.3c0.1-0.1,0.2-0.2,0.3-0.2c0.1-0.1,0.3-0.1,0.5-0.1c0.2,0,0.4,0,0.6,0     c0.4,0,0.8,0.1,1.1,0.2l-0.1,0.8c-0.3-0.1-0.6-0.1-0.8-0.1c-0.1,0-0.2,0-0.3,0c-0.1,0-0.2,0-0.3,0c-0.1,0-0.1,0.1-0.2,0.1     c-0.1,0-0.1,0.1-0.1,0.1c0,0.1-0.1,0.1-0.1,0.2c0,0.1,0,0.1-0.1,0.2s0,0.2,0,0.3s0,0.2,0,0.3c0,0.2,0,0.3,0,0.4s0,0.2,0,0.3     c0,0.1,0,0.2,0.1,0.3c0,0.1,0.1,0.1,0.1,0.2c0.1,0.1,0.1,0.1,0.2,0.1c0.1,0,0.2,0.1,0.3,0.1c0.1,0,0.2,0,0.4,0     C189,50.1,189.2,50.1,189.6,50z"/>
			<path class="st0" d="M191.5,46c-0.1,0.1-0.3,0.1-0.5,0.1c-0.2,0-0.4,0-0.5-0.1c-0.1-0.1-0.1-0.2-0.1-0.5c0-0.2,0-0.4,0.1-0.5     c0.1-0.1,0.3-0.1,0.5-0.1c0.2,0,0.4,0,0.5,0.1c0.1,0.1,0.1,0.2,0.1,0.5C191.7,45.7,191.6,45.9,191.5,46z M190.5,50.9v-4.3h1.1     v4.3H190.5z"/>
			<path class="st0" d="M195.4,50.9c-0.2,0.1-0.5,0.1-0.9,0.1c-0.4,0-0.7,0-0.9-0.1c-0.2-0.1-0.4-0.2-0.6-0.4s-0.3-0.4-0.3-0.7     c-0.1-0.3-0.1-0.6-0.1-1c0-0.3,0-0.6,0.1-0.8c0-0.2,0.1-0.4,0.2-0.6c0.1-0.2,0.2-0.3,0.4-0.4c0.2-0.1,0.3-0.2,0.5-0.2     c0.2-0.1,0.5-0.1,0.7-0.1c0.4,0,0.7,0,0.9,0.1c0.2,0.1,0.4,0.2,0.6,0.4c0.2,0.2,0.3,0.4,0.3,0.7c0.1,0.3,0.1,0.6,0.1,1     c0,0.4,0,0.7-0.1,1c-0.1,0.3-0.2,0.5-0.3,0.7C195.8,50.7,195.6,50.8,195.4,50.9z M194.5,50.1c0.2,0,0.3,0,0.4-0.1     c0.1,0,0.2-0.1,0.3-0.2c0.1-0.1,0.1-0.2,0.1-0.4c0-0.2,0-0.4,0-0.7c0-0.3,0-0.5,0-0.7c0-0.2-0.1-0.3-0.1-0.4     c-0.1-0.1-0.2-0.2-0.3-0.2c-0.1,0-0.2-0.1-0.4-0.1c-0.1,0-0.2,0-0.3,0c-0.1,0-0.2,0-0.2,0.1c-0.1,0-0.1,0.1-0.2,0.2     s-0.1,0.1-0.1,0.2s0,0.2-0.1,0.4c0,0.1,0,0.3,0,0.5c0,0.2,0,0.3,0,0.5c0,0.1,0,0.2,0.1,0.4c0,0.1,0.1,0.2,0.1,0.2     s0.1,0.1,0.2,0.2c0.1,0,0.1,0.1,0.2,0.1C194.3,50.1,194.4,50.1,194.5,50.1z"/>
			<path class="st0" d="M198.4,48.1v2.8h-1.1v-3.1c0-0.3,0-0.5,0-0.8c0.5-0.3,1.1-0.4,1.9-0.4c0.2,0,0.4,0,0.6,0     c0.2,0,0.3,0.1,0.4,0.1c0.1,0,0.2,0.1,0.3,0.2c0.1,0.1,0.2,0.2,0.2,0.2c0,0.1,0.1,0.2,0.1,0.3c0,0.1,0,0.2,0.1,0.3     c0,0.1,0,0.2,0,0.4v2.7h-1.1v-2.6c0-0.1,0-0.2,0-0.3c0-0.1,0-0.1,0-0.2c0-0.1-0.1-0.1-0.1-0.2c0,0-0.1-0.1-0.2-0.1     c-0.1,0-0.1-0.1-0.2-0.1c-0.1,0-0.2,0-0.3,0c-0.3,0-0.5,0-0.7,0.1C198.4,47.7,198.4,47.9,198.4,48.1z"/>
			<path class="st0" d="M203.5,51c-0.6,0-1-0.1-1.3-0.3c-0.3-0.2-0.4-0.6-0.4-1c0-0.4,0.1-0.7,0.3-0.9c0.2-0.2,0.5-0.4,0.9-0.4     c0.3,0,0.7-0.1,1.4-0.1c0-0.2-0.1-0.4-0.2-0.5c-0.1-0.1-0.3-0.2-0.6-0.2c-0.4,0-0.9,0-1.5,0.1l-0.1-0.8c0.6-0.1,1.2-0.2,1.7-0.2     c0.2,0,0.4,0,0.6,0c0.2,0,0.3,0.1,0.5,0.1c0.2,0.1,0.3,0.1,0.4,0.2c0.1,0.1,0.2,0.2,0.2,0.4c0.1,0.2,0.1,0.4,0.1,0.6v1.8     c0,0.3,0,0.5,0,0.8C205,50.9,204.3,51,203.5,51z M204.4,49.5v-0.6c0,0-0.1,0-0.2,0c-0.1,0-0.1,0-0.2,0c0,0-0.1,0-0.2,0     c-0.1,0-0.1,0-0.2,0c0,0-0.1,0-0.2,0c-0.1,0-0.1,0-0.2,0c-0.1,0-0.2,0.1-0.3,0.1s-0.1,0.1-0.2,0.2c0,0.1-0.1,0.2-0.1,0.4     c0,0.2,0.1,0.4,0.2,0.4c0.1,0.1,0.3,0.1,0.6,0.1c0.3,0,0.6,0,0.8-0.1C204.4,49.9,204.4,49.7,204.4,49.5z"/>
			<path class="st0" d="M206.5,49.8V45h1.1v4.8c0,0.2,0,0.4,0.1,0.5c0,0.1,0.1,0.3,0.2,0.4l-0.9,0.4c-0.1-0.2-0.2-0.4-0.3-0.6     C206.5,50.4,206.5,50.1,206.5,49.8z"/>
		</g>
	</g>
</g>
</svg>